<svg width="567" height="736" viewBox="0 0 567 736" fill="none" xmlns="http://www.w3.org/2000/svg">
<path d="M63.3266 615.315V306.411H512.098V615.315" fill="#4569EC"/>
<path d="M287.712 474.949C318.28 474.949 343.061 451.732 343.061 423.091C343.061 394.451 318.28 371.233 287.712 371.233C257.144 371.233 232.364 394.451 232.364 423.091C232.364 451.732 257.144 474.949 287.712 474.949Z" fill="#0D2B84"/>
<path d="M279.235 579.413H296.438C304.167 579.413 310.649 573.18 310.649 565.202V439.047H265.274V565.202C265.024 572.93 271.257 579.413 279.235 579.413Z" fill="#0D2B84"/>
<path d="M102.719 306.66H148.094V263.528C148.094 191.475 210.673 132.637 287.712 132.637C364.751 132.637 427.33 191.226 427.33 263.528V306.66H472.705V263.528C472.705 168.04 389.683 90.2527 287.712 90.2527C185.741 90.2527 102.719 168.04 102.719 263.528V306.66Z" fill="#E2E2E2"/>
<path d="M405.39 234.359C403.146 237.101 392.425 241.838 389.683 241.339C369.987 238.597 359.515 221.643 351.786 213.665C350.54 212.419 349.293 210.923 348.296 209.427C343.06 202.446 340.817 194.966 339.819 188.733C338.822 182.501 339.321 178.013 339.321 178.013C339.321 178.013 328.351 123.662 339.57 128.897C351.039 134.133 365 157.569 375.472 175.27C375.721 175.769 375.97 176.268 376.469 176.766C377.217 178.013 377.715 179.01 378.463 180.007C379.959 182.75 381.455 185.492 382.951 187.736C385.943 192.723 393.422 204.191 393.422 204.191C393.422 204.191 414.365 223.139 405.39 234.359Z" fill="#F5AF86"/>
<path d="M389.932 224.386C383.2 222.391 373.477 221.145 372.231 212.419C371.483 207.183 377.715 201.449 379.71 196.961C381.206 193.969 381.954 190.977 382.452 187.736C381.206 185.492 379.71 182.75 377.965 180.007C377.466 179.01 376.718 178.013 375.97 176.766C370.984 179.758 366.496 187.238 364.252 190.479C359.765 196.712 351.288 203.942 351.288 212.419C351.288 212.668 351.288 213.167 351.288 213.416C359.017 221.394 371.233 228.126 390.929 231.118C393.921 231.616 396.414 230.12 398.658 227.378C396.913 225.633 392.425 225.134 389.932 224.386Z" fill="#F5AF86"/>
<path d="M339.071 178.013C339.071 178.013 338.573 182.501 339.57 188.733C340.567 196.213 343.559 205.936 351.039 214.413C358.767 222.89 384.696 181.005 377.217 170.533C365.748 154.577 350.54 134.133 339.321 128.897C328.351 123.662 339.071 178.013 339.071 178.013Z" fill="#F15C70"/>
<path d="M341.066 129.645C341.066 129.645 348.545 133.385 350.291 144.853C352.036 156.322 354.28 187.985 351.288 199.703C349.044 209.177 348.296 210.922 348.296 210.922L341.564 200.95C341.564 200.95 334.334 189.98 335.581 187.237C336.578 184.744 341.066 129.645 341.066 129.645Z" fill="#E55565"/>
<path d="M427.33 416.111C425.585 414.864 411.623 421.097 411.872 421.845C412.371 424.588 415.113 434.81 416.858 435.807C418.604 436.555 432.815 431.818 432.316 429.325C431.568 426.831 429.075 417.108 427.33 416.111Z" fill="#F5AF86"/>
<path d="M414.864 433.064C414.864 433.064 411.373 444.782 418.604 450.516C418.604 450.516 453.508 440.544 463.231 435.557C463.231 435.557 459.242 422.842 450.017 424.837C440.793 426.831 432.067 430.072 432.067 430.072C432.067 430.072 423.59 437.801 414.864 433.064Z" fill="#08090B"/>
<path d="M299.929 288.959C308.904 306.91 341.315 314.14 365.25 320.373C379.71 324.113 390.929 327.603 392.675 332.839C398.658 353.283 402.897 407.135 408.631 426.083C410.625 428.327 414.864 428.577 419.352 427.579C426.582 426.333 434.061 422.593 434.061 422.593C432.815 380.708 436.305 341.565 429.574 312.395C418.354 263.529 344.307 241.09 344.307 241.09C331.093 227.128 283.972 257.545 299.929 288.959Z" fill="#08090B"/>
<path d="M351.537 431.569C350.54 429.574 335.83 427.081 335.332 428.078C334.085 430.572 330.844 440.794 331.841 442.539C332.838 444.284 347.299 448.024 348.296 445.281C349.293 443.037 352.534 433.563 351.537 431.569Z" fill="#F5AF86"/>
<path d="M323.614 279.484C331.343 287.463 340.318 293.945 348.296 301.674C354.28 307.657 360.014 313.89 365.25 320.372C379.71 324.112 390.929 327.603 392.675 332.838C398.658 353.282 402.897 407.135 408.631 426.083C410.625 428.327 414.864 428.576 419.352 427.579C420.1 424.338 420.1 420.847 420.349 417.606C420.847 407.883 419.85 398.159 417.856 388.436C414.116 369.239 408.132 349.044 400.154 331.342C395.666 321.37 391.179 312.893 388.935 301.923C387.439 294.942 385.694 287.961 381.455 281.978C370.485 267.268 350.789 263.029 336.08 253.057C335.83 253.057 335.83 252.807 335.581 252.807C335.581 252.06 334.833 251.312 333.836 251.561C319.375 256.049 312.395 267.766 323.614 279.484Z" fill="#08090B"/>
<path d="M331.841 439.048C331.841 439.048 322.616 447.026 325.359 455.752C325.359 455.752 360.014 466.473 370.984 467.47C370.984 467.47 374.724 454.755 365.748 451.264C357.022 447.774 347.797 445.779 347.797 445.779C347.797 445.779 336.578 447.774 331.841 439.048Z" fill="#08090B"/>
<path d="M254.553 290.704C269.013 319.376 325.359 311.148 329.597 325.11C335.581 345.554 339.57 419.601 331.841 431.569C332.589 432.317 333.337 433.065 334.334 433.812C340.817 438.55 352.036 440.793 352.036 440.793C365 412.371 377.965 356.524 379.959 324.362C382.951 274.249 299.181 243.085 299.181 243.085C288.46 231.367 255.301 249.567 252.06 273.751C251.062 279.236 251.81 284.97 254.553 290.704Z" fill="#08090B"/>
<path d="M358.019 245.827C357.521 247.323 335.332 260.038 322.866 264.775C301.425 272.753 265.024 279.235 255.55 277.49C251.81 276.742 249.317 275.745 248.819 274.498C247.073 270.509 253.306 232.862 252.558 207.681C252.309 202.695 252.309 197.958 252.309 192.971C252.06 167.79 254.054 144.105 259.539 139.618C260.786 138.62 262.282 137.623 264.027 136.376C266.52 134.631 269.512 132.886 272.753 131.141C277.739 128.398 283.723 125.905 290.455 124.16C300.677 121.417 312.644 120.669 325.858 123.661C329.099 124.409 332.34 125.407 335.581 126.653C336.329 126.902 337.077 127.152 338.074 127.65C349.293 132.138 347.548 156.322 345.803 176.766C345.055 186.24 344.058 194.717 344.556 200.202C344.806 201.947 344.806 203.692 345.304 205.687C347.798 220.895 356.025 235.106 358.019 245.827Z" fill="#F5AF86"/>
<path d="M362.757 246.575C362.258 248.071 333.088 261.783 316.384 268.764C295.192 277.49 265.024 279.485 255.55 277.74C251.81 276.992 249.317 275.995 248.819 274.748C247.073 270.759 253.306 233.112 252.558 207.931C252.309 202.945 252.309 198.208 252.309 193.221C252.06 168.04 254.054 144.355 259.539 139.867C260.786 138.87 262.282 137.873 264.027 136.626C266.52 134.881 269.512 133.136 272.753 131.391C277.739 128.648 283.723 126.155 290.455 124.41C300.677 121.667 312.644 120.919 325.858 123.911C329.099 124.659 332.34 125.656 335.581 126.903C336.329 127.152 337.077 127.401 338.074 127.9C349.293 132.388 347.548 156.572 345.803 177.016C345.055 186.739 365.25 245.329 362.757 246.575Z" fill="#F15C70"/>
<path d="M316.134 111.694V122.664C316.134 122.664 318.627 127.401 316.134 127.9C310.4 129.146 302.172 122.664 302.172 122.664V105.96L316.134 111.694Z" fill="#F5AF86"/>
<path d="M302.422 114.188V106.708C302.422 106.708 308.655 114.437 315.386 114.935C315.386 114.935 307.907 117.927 302.422 114.188Z" fill="#F5AF86"/>
<path d="M321.619 86.5136C321.619 86.5136 324.362 97.7329 323.364 107.456C322.617 114.437 308.405 120.421 300.677 108.703C292.948 96.9849 298.931 83.2725 298.931 83.2725L321.619 86.5136Z" fill="#F5AF86"/>
<path d="M294.942 203.194C306.411 186.739 302.172 156.073 283.723 140.864C278.487 136.626 273.75 135.629 273.002 135.878C273.75 136.127 279.734 144.854 279.235 145.851C272.753 159.065 267.517 168.04 259.539 180.257C256.547 184.744 254.304 188.983 252.309 193.221C252.309 197.958 252.309 202.944 252.558 207.931C253.306 233.112 247.073 270.759 248.819 274.748C249.317 275.994 251.81 276.992 255.55 277.74C259.041 267.518 263.279 240.591 264.775 230.369C266.769 215.66 287.213 214.164 294.942 203.194Z" fill="#E55565"/>
<path d="M323.115 73.5488C321.121 73.5488 319.874 74.2967 318.129 75.0447C315.137 76.042 312.644 76.042 309.403 75.7926C305.663 75.7926 301.923 75.7926 298.931 78.5351C294.194 82.7735 292.449 92.9955 294.942 99.2285C294.942 100.475 295.441 101.472 296.688 102.47C298.682 103.716 301.175 102.968 302.422 100.974C304.416 97.9819 303.419 93.7435 303.668 90.5024C303.668 89.7544 303.918 88.7571 303.918 87.7599C312.644 89.7544 324.362 91.7489 330.345 85.516C336.578 79.2831 330.345 73.2995 323.115 73.5488Z" fill="#08090B"/>
<path d="M219.648 252.559C234.109 272.754 298.183 253.806 298.183 253.806L297.186 242.586C297.186 242.586 259.539 245.578 252.06 233.112C250.813 230.868 254.802 204.69 261.783 197.958C265.024 194.967 268.265 191.975 271.008 189.482C277.989 183.498 282.975 175.271 284.471 166.295C285.967 157.569 284.72 150.339 282.726 144.605C279.734 136.626 269.761 134.133 263.03 139.369C250.314 149.591 229.87 176.268 229.372 176.766C211.421 200.701 205.188 232.115 219.648 252.559Z" fill="#F5AF86"/>
<path d="M261.783 203.692C264.775 200.95 282.726 182.999 285.717 165.298C286.964 157.319 284.471 137.873 274.498 135.379C258.542 131.64 237.101 155.076 222.142 172.528C228.873 187.985 243.832 198.706 261.783 203.692Z" fill="#F15C70"/>
<path d="M347.299 250.065L304.666 252.558L345.554 264.027L347.299 250.065Z" fill="#2A2B3D"/>
<path d="M304.666 252.558L304.416 256.547L345.554 269.013V264.027L304.666 252.558Z" fill="#2A2B3D"/>
<path d="M433.812 258.542L345.554 264.027V269.014L433.812 263.28V258.542Z" fill="#2A2B3D"/>
<path d="M433.812 258.542L345.554 263.778L352.285 215.909C352.535 214.164 353.781 212.917 355.526 212.917L436.554 207.931C438.798 207.681 440.543 209.676 440.294 211.92L433.812 258.542Z" fill="#2A2B3D"/>
<path d="M330.345 239.843C327.603 238.846 324.611 238.597 321.868 238.846C321.619 238.846 321.121 238.846 320.871 238.597C321.121 238.347 321.37 237.849 321.37 237.599C322.367 235.605 322.367 231.865 319.874 230.868C317.131 229.871 315.386 233.361 313.89 234.857C312.145 236.851 310.4 238.846 308.156 240.093C305.912 241.09 303.17 241.339 300.676 241.588C298.931 241.838 295.939 242.087 294.942 243.832C294.194 245.328 293.945 248.071 294.444 249.816C294.942 251.81 296.687 252.808 298.433 253.556C299.43 254.054 301.175 254.553 303.17 254.802C305.912 255.55 308.904 256.049 311.896 255.301C312.644 255.052 313.142 254.802 313.641 254.553C316.134 255.55 318.877 256.049 321.868 255.55C323.115 255.301 323.614 254.054 323.364 253.057C323.863 252.808 324.362 252.558 324.86 252.309C325.359 251.81 325.608 251.062 325.608 250.564C326.107 250.315 326.605 249.816 327.104 249.567C328.6 248.071 328.849 246.076 328.351 244.331C331.093 245.578 333.337 247.572 335.332 249.816C336.329 251.062 338.074 250.564 338.573 249.068C340.318 245.328 333.836 241.09 330.345 239.843Z" fill="#F5AF86"/>
<path d="M402.897 262.78C403.146 262.033 403.894 260.537 405.141 260.786C405.39 260.786 405.39 260.786 405.639 261.035C405.639 260.537 405.639 259.789 405.639 259.29C405.888 258.043 407.135 256.298 408.88 257.295C409.628 257.794 410.127 258.293 410.376 259.041C410.626 258.043 411.373 257.046 412.62 256.548C414.615 255.8 415.612 257.046 416.11 258.542C416.36 257.046 417.357 254.802 419.352 256.049C420.349 256.548 421.097 258.043 421.845 259.041C422.593 260.287 423.341 261.783 423.59 263.279C423.59 263.279 423.59 263.279 423.59 263.528C423.839 263.778 423.839 264.027 423.839 264.276C423.341 265.772 421.346 267.518 419.352 266.022C418.853 265.772 418.354 265.274 418.105 264.775C418.354 266.271 417.856 267.518 416.36 267.767C414.615 268.016 413.368 267.019 412.371 265.523C411.872 266.271 411.373 267.019 410.376 267.019C409.628 267.019 408.88 266.52 408.382 265.772C408.382 266.022 408.382 266.022 408.132 266.271C405.39 267.268 402.398 265.274 402.897 262.78Z" fill="#F5AF86"/>
<path d="M211.172 605.342L203.941 555.978L183.248 559.468L190.478 608.833L157.818 614.318L150.837 566.2L130.144 569.69L137.124 617.808L139.368 633.017L141.114 645.482L333.337 614.068C346.052 650.718 381.954 673.905 419.85 667.672C462.982 660.691 492.651 617.808 485.919 572.183C479.188 526.558 438.798 495.144 395.417 502.374C355.776 508.857 327.603 545.506 328.351 586.893L253.805 599.109L248.819 565.701L228.125 569.191L233.112 602.6L211.172 605.342ZM362.507 591.63C358.767 565.452 375.721 541.019 400.403 537.029C425.086 533.04 448.272 550.991 452.261 577.17C456.001 603.348 439.048 627.781 414.365 631.77C389.433 635.759 366.247 617.808 362.507 591.63Z" fill="#2D0780"/>
<path d="M363.006 594.871C368.241 619.304 390.431 635.759 414.116 631.77C437.801 627.781 454.505 605.093 452.261 580.161C452.511 581.158 452.76 582.156 452.76 583.402C456.5 609.581 439.546 634.014 414.864 638.003C390.181 641.992 366.995 624.041 363.006 597.863C363.255 596.865 363.255 595.868 363.006 594.871Z" fill="#4A0BD1"/>
<path d="M396.165 507.859C356.524 514.341 328.351 550.991 329.099 592.378L254.553 604.594L253.556 598.361L328.101 586.145C327.354 544.758 355.526 508.108 395.168 501.626C438.3 494.645 478.938 525.81 485.67 571.435C485.919 572.432 485.919 573.429 486.169 574.676C477.941 530.796 438.3 501.127 396.165 507.859Z" fill="#4A0BD1"/>
<path d="M158.316 620.301L157.568 614.068L190.229 608.833L191.226 615.065L158.316 620.301Z" fill="#4A0BD1"/>
<path d="M233.86 608.084L211.92 611.575L211.172 605.342L232.862 601.852L233.86 608.084Z" fill="#4A0BD1"/>
<path d="M183.996 565.701L182.999 559.218L203.692 555.977L204.69 562.21L183.996 565.701Z" fill="#4A0BD1"/>
<path d="M130.642 575.673L129.645 569.44L150.338 565.95L151.336 572.432L130.642 575.673Z" fill="#4A0BD1"/>
<path d="M228.873 574.676L228.125 568.444L248.819 564.953L249.816 571.186L228.873 574.676Z" fill="#4A0BD1"/>
<path d="M212.917 618.556L205.687 569.191L184.993 572.682L192.224 622.047L159.563 627.532L152.582 579.413L131.889 582.904L138.87 631.022L141.114 646.23L142.859 658.696L335.082 627.282C347.798 663.932 383.699 687.118 421.595 680.886C464.727 673.905 494.396 631.022 487.664 585.397C480.933 539.772 440.544 508.358 397.162 515.588C357.521 522.07 329.348 558.72 330.096 600.107L255.55 612.323L250.564 578.915L229.87 582.405L234.857 615.814L212.917 618.556ZM364.502 605.093C360.762 578.915 377.716 554.482 402.398 550.493C427.08 546.504 450.267 564.454 454.256 590.633C457.996 616.811 441.042 641.244 416.36 645.233C391.428 649.222 368.242 631.271 364.502 605.093Z" fill="#490DC9"/>
<path d="M364.253 602.6C364.003 601.852 364.003 601.104 363.754 600.356C360.014 574.178 376.968 549.744 401.65 545.755C426.333 541.766 449.519 559.717 453.508 585.896C453.508 586.643 453.757 587.391 453.757 588.139C449.02 563.208 426.333 546.503 402.398 550.492C378.214 554.232 361.51 577.419 364.253 602.6Z" fill="#23095C"/>
<path d="M420.598 675.65C462.982 668.669 492.402 627.282 486.917 582.405C487.166 583.153 487.166 583.901 487.415 584.649C494.147 630.274 464.478 673.157 421.346 680.138C383.45 686.371 347.798 663.184 334.833 626.534L142.61 657.948L141.862 653.211L334.085 621.797C347.05 658.696 382.702 681.883 420.598 675.65Z" fill="#23095C"/>
<path d="M235.355 618.307L213.415 621.798L212.917 618.557L234.857 615.066L235.355 618.307Z" fill="#4A0BD1"/>
<path d="M364.751 606.589C369.239 631.77 391.927 648.973 416.36 644.984C440.543 640.995 457.248 617.31 454.505 591.879C454.505 592.378 454.755 592.877 454.755 593.375C458.494 619.554 441.541 643.987 416.858 647.976C392.176 651.965 368.989 634.014 365 607.836C364.751 607.586 364.751 607.088 364.751 606.589Z" fill="#4A0BD1"/>
<path d="M159.812 630.523L159.563 627.532L192.223 622.047L192.722 625.288L159.812 630.523Z" fill="#4A0BD1"/>
<path d="M397.661 518.082C358.019 524.564 329.847 561.213 330.595 602.6L256.049 614.817L255.55 611.576L330.096 599.359C329.348 557.972 357.521 521.323 397.162 514.84C440.294 507.86 480.933 539.024 487.664 584.649C487.664 585.148 487.664 585.647 487.914 586.145C480.434 541.517 440.294 511.101 397.661 518.082Z" fill="#4A0BD1"/>
<path d="M230.369 584.898L229.87 581.657L250.813 578.416L251.312 581.408L230.369 584.898Z" fill="#4A0BD1"/>
<path d="M185.492 575.674L184.993 572.682L205.687 569.191L206.185 572.433L185.492 575.674Z" fill="#4A0BD1"/>
<path d="M132.138 585.896L131.639 582.904L152.333 579.414L152.831 582.405L132.138 585.896Z" fill="#4A0BD1"/>
<path d="M451.513 579.912L453.009 583.652C476.694 575.175 518.081 577.17 538.026 595.619C567.945 623.293 570.936 671.661 544.259 703.823C517.832 735.985 471.957 739.475 442.039 711.801C432.565 702.825 425.584 692.105 421.595 680.137L416.36 681.135C420.598 692.603 428.826 707.064 438.3 715.79C470.212 745.459 519.328 741.47 547.501 707.313C575.923 673.157 572.931 621.299 540.769 591.63C518.829 571.186 477.193 569.69 451.513 579.912Z" fill="#C8C8C8"/>
<path d="M136.626 71.3047H119.423C117.678 71.3047 116.431 73.0499 116.93 74.7952C119.174 81.0281 121.916 87.261 124.908 93.7433C125.157 94.4912 124.409 94.9899 123.911 94.4912L101.223 72.0527C100.724 71.554 99.9761 71.3047 99.4775 71.3047H25.9289C22.6878 71.3047 20.1946 68.8116 20.1946 65.5704V5.7343C20.1946 2.49317 22.6878 0 25.9289 0H136.626C139.867 0 142.36 2.49317 142.36 5.7343V65.8197C142.36 68.8116 139.618 71.3047 136.626 71.3047Z" fill="#0034EE"/>
<path d="M56.3456 25.9287H46.6223V35.6521H56.3456V25.9287Z" fill="#E2E2E2"/>
<path d="M84.0199 25.9287H74.2965V35.6521H84.0199V25.9287Z" fill="#E2E2E2"/>
<path d="M97.9816 25.9287H88.2582V35.6521H97.9816V25.9287Z" fill="#E2E2E2"/>
<path d="M111.694 25.9287H101.971V35.6521H111.694V25.9287Z" fill="#E2E2E2"/>
<path d="M125.656 25.9287H115.932V35.6521H125.656V25.9287Z" fill="#E2E2E2"/>
<path d="M70.3075 25.9287H60.5841V35.6521H70.3075V25.9287Z" fill="#E2E2E2"/>
<path d="M361.011 80.0306H378.214C379.959 80.0306 381.206 81.7758 380.707 83.521C378.464 89.754 375.721 95.9869 372.729 102.469C372.48 103.217 373.228 103.716 373.726 103.217L396.414 80.7786C396.913 80.2799 397.661 80.0306 398.16 80.0306H471.708C474.949 80.0306 477.442 77.5374 477.442 74.2963V14.2109C477.442 10.9697 474.949 8.47656 471.708 8.47656H361.011C357.77 8.47656 355.277 10.9697 355.277 14.2109V74.2963C355.277 77.2881 357.77 80.0306 361.011 80.0306Z" fill="#4C21A7"/>
<path d="M441.047 44.4133H450.771V34.69H441.047V44.4133Z" fill="#E2E2E2"/>
<path d="M427.34 44.4133H437.063V34.69H427.34V44.4133Z" fill="#E2E2E2"/>
<path d="M413.378 44.4133H423.101V34.69H413.378V44.4133Z" fill="#E2E2E2"/>
<path d="M399.67 44.4133H409.394V34.69H399.67V44.4133Z" fill="#E2E2E2"/>
<path d="M385.709 44.4133H395.432V34.69H385.709V44.4133Z" fill="#E2E2E2"/>
<path d="M372.001 44.4133H381.725V34.69H372.001V44.4133Z" fill="#E2E2E2"/>
<path fill-rule="evenodd" clip-rule="evenodd" d="M8.72607 504.618H67.8143H126.902L110.946 612.822H67.8143H24.6824L8.72607 504.618Z" fill="#D4C9C1"/>
<path fill-rule="evenodd" clip-rule="evenodd" d="M135.629 483.177L132.387 504.618H3.24112L0 483.177H135.629Z" fill="#D4C9C1"/>
<path fill-rule="evenodd" clip-rule="evenodd" d="M90.5022 504.618H130.144L114.187 612.822H82.0254L87.2611 504.618H90.5022Z" fill="#D4C9C1"/>
<path fill-rule="evenodd" clip-rule="evenodd" d="M28.6715 504.618H47.869L53.1046 612.822H36.899L25.4304 504.618H28.6715Z" fill="#D4C9C1"/>
<path fill-rule="evenodd" clip-rule="evenodd" d="M8.72607 504.618H71.0554H130.144L128.897 513.593H9.97266L8.72607 504.618Z" fill="#A1A1A1"/>
<path fill-rule="evenodd" clip-rule="evenodd" d="M90.502 504.618H130.143L128.897 513.593H90.0034L90.502 504.618Z" fill="#A1A1A1"/>
<path fill-rule="evenodd" clip-rule="evenodd" d="M138.87 483.177L135.629 504.618H94.9898L96.2364 483.177H138.87Z" fill="#D4C9C1"/>
<path fill-rule="evenodd" clip-rule="evenodd" d="M47.869 504.618H22.1893L19.6961 483.177H46.6224L47.869 504.618Z" fill="#D4C9C1"/>
<path fill-rule="evenodd" clip-rule="evenodd" d="M67.8143 373.726H74.2966V483.177H67.8143V373.726Z" fill="#4C21A7"/>
<path fill-rule="evenodd" clip-rule="evenodd" d="M125.656 394.17C95.4885 394.17 71.0554 418.603 71.0554 448.771C101.223 448.771 125.656 424.338 125.656 394.17Z" fill="#4C21A7"/>
<path fill-rule="evenodd" clip-rule="evenodd" d="M125.656 397.163C95.4885 397.163 71.0554 421.596 71.0554 451.763C81.2774 428.327 108.204 406.886 125.656 397.163Z" fill="#4C21A7"/>
<path fill-rule="evenodd" clip-rule="evenodd" d="M71.0555 409.13C90.7515 389.434 90.7515 357.77 71.0555 338.323C51.6087 357.77 51.6087 389.434 71.0555 409.13Z" fill="#4C21A7"/>
<path fill-rule="evenodd" clip-rule="evenodd" d="M71.0554 409.13C90.7515 389.434 90.7515 357.77 71.0554 338.323C79.7815 360.263 76.2911 391.677 71.0554 409.13Z" fill="#4C21A7"/>
<path fill-rule="evenodd" clip-rule="evenodd" d="M25.4304 403.146C25.4304 428.327 45.8744 448.771 71.0555 448.771C71.0555 423.59 50.6115 403.146 25.4304 403.146Z" fill="#4C21A7"/>
<path fill-rule="evenodd" clip-rule="evenodd" d="M27.1757 404.393C27.1757 429.574 47.6197 450.018 72.8007 450.018C53.1046 441.541 35.1538 418.853 27.1757 404.393Z" fill="#4C21A7"/>
</svg>
