<svg width="509" height="488" viewBox="0 0 509 488" fill="none" xmlns="http://www.w3.org/2000/svg">
<path d="M255.829 487.129C390.625 487.129 499.899 483.709 499.899 479.489C499.899 475.27 390.625 471.85 255.829 471.85C121.033 471.85 11.7589 475.27 11.7589 479.489C11.7589 483.709 121.033 487.129 255.829 487.129Z" fill="#0B1A2B"/>
<path fill-rule="evenodd" clip-rule="evenodd" d="M35.78 475H15.2636C7.0334 475 0.299622 468.306 0.299622 460.036C0.299622 451.806 6.99402 445.072 15.2636 445.072H136.472C140.252 445.072 143.284 442.001 143.284 438.26C143.284 434.48 140.213 431.408 136.472 431.408H69.4489C63.5814 431.408 58.7772 426.604 58.7772 420.736C58.7772 414.869 63.5814 410.065 69.4489 410.065H138.874C155.728 410.065 169.471 396.361 169.471 379.507V365.094H173.291V379.507C173.291 398.448 157.854 413.884 138.913 413.884H69.4489C65.6685 413.884 62.5576 416.956 62.5576 420.776C62.5576 424.556 65.6291 427.667 69.4489 427.667H136.472C142.339 427.667 147.104 432.432 147.104 438.299C147.104 444.167 142.339 448.932 136.472 448.932H15.2636C9.12048 448.932 4.11937 453.933 4.11937 460.076C4.11937 466.219 9.12048 471.22 15.2636 471.22H35.78V475Z" fill="#4C73FF"/>
<path d="M340.415 467.243H35.78V478.938H340.415V467.243Z" fill="#4C73FF"/>
<path fill-rule="evenodd" clip-rule="evenodd" d="M58.7378 459.918H45.8609L44.207 467.243H60.6674L58.7378 459.918Z" fill="#7491F5"/>
<path fill-rule="evenodd" clip-rule="evenodd" d="M76.1826 459.918H63.2664L61.6519 467.243H78.1122L76.1826 459.918Z" fill="#7491F5"/>
<path fill-rule="evenodd" clip-rule="evenodd" d="M93.6275 459.918H80.7112L79.0573 467.243H95.5571L93.6275 459.918Z" fill="#7491F5"/>
<path fill-rule="evenodd" clip-rule="evenodd" d="M111.072 459.918H98.156L96.5021 467.243H113.002L111.072 459.918Z" fill="#7491F5"/>
<path fill-rule="evenodd" clip-rule="evenodd" d="M128.517 459.918H115.601L113.947 467.243H130.407L128.517 459.918Z" fill="#7491F5"/>
<path fill-rule="evenodd" clip-rule="evenodd" d="M145.923 459.918H133.046L131.392 467.243H147.852L145.923 459.918Z" fill="#7491F5"/>
<path fill-rule="evenodd" clip-rule="evenodd" d="M163.367 459.918H150.451L148.837 467.243H165.297L163.367 459.918Z" fill="#7491F5"/>
<path fill-rule="evenodd" clip-rule="evenodd" d="M180.812 459.918H167.896L166.242 467.243H182.742L180.812 459.918Z" fill="#7491F5"/>
<path fill-rule="evenodd" clip-rule="evenodd" d="M198.257 459.918H185.341L183.687 467.243H200.187L198.257 459.918Z" fill="#7491F5"/>
<path fill-rule="evenodd" clip-rule="evenodd" d="M215.702 459.918H202.786L201.132 467.243H217.592L215.702 459.918Z" fill="#7491F5"/>
<path fill-rule="evenodd" clip-rule="evenodd" d="M233.107 459.918H220.23L218.577 467.243H235.037L233.107 459.918Z" fill="#7491F5"/>
<path fill-rule="evenodd" clip-rule="evenodd" d="M250.552 459.918H237.675L236.021 467.243H252.482L250.552 459.918Z" fill="#7491F5"/>
<path fill-rule="evenodd" clip-rule="evenodd" d="M267.997 459.918H255.081L253.466 467.243H269.927L267.997 459.918Z" fill="#7491F5"/>
<path fill-rule="evenodd" clip-rule="evenodd" d="M294.223 459.918H281.307L279.693 467.243H296.153L294.223 459.918Z" fill="#7491F5"/>
<path fill-rule="evenodd" clip-rule="evenodd" d="M311.668 459.918H298.752L297.098 467.243H313.598L311.668 459.918Z" fill="#7491F5"/>
<path fill-rule="evenodd" clip-rule="evenodd" d="M329.113 459.918H316.197L314.543 467.243H331.042L329.113 459.918Z" fill="#7491F5"/>
<path fill-rule="evenodd" clip-rule="evenodd" d="M47.2392 459.918V464.919L60.2736 465.786L60.6674 467.243H44.207L45.8609 459.918H47.2392Z" fill="#4C73FF"/>
<path fill-rule="evenodd" clip-rule="evenodd" d="M64.684 459.918V464.919L77.7184 465.786L78.1122 467.243H61.6519L63.2664 459.918H64.684Z" fill="#4C73FF"/>
<path fill-rule="evenodd" clip-rule="evenodd" d="M82.0895 459.918V464.919L95.1633 465.786L95.5571 467.243H79.0573L80.7112 459.918H82.0895Z" fill="#4C73FF"/>
<path fill-rule="evenodd" clip-rule="evenodd" d="M99.5342 459.918V464.919L112.608 465.786L113.002 467.243H96.5021L98.156 459.918H99.5342Z" fill="#4C73FF"/>
<path fill-rule="evenodd" clip-rule="evenodd" d="M116.979 459.918V464.919L130.053 465.786L130.407 467.243H113.947L115.601 459.918H116.979Z" fill="#4C73FF"/>
<path fill-rule="evenodd" clip-rule="evenodd" d="M134.424 459.918V464.919L147.458 465.786L147.852 467.243H131.392L133.046 459.918H134.424Z" fill="#4C73FF"/>
<path fill-rule="evenodd" clip-rule="evenodd" d="M151.869 459.918V464.919L164.903 465.786L165.297 467.243H148.837L150.451 459.918H151.869Z" fill="#4C73FF"/>
<path fill-rule="evenodd" clip-rule="evenodd" d="M169.314 459.918V464.919L182.348 465.786L182.742 467.243H166.242L167.896 459.918H169.314Z" fill="#4C73FF"/>
<path fill-rule="evenodd" clip-rule="evenodd" d="M186.719 459.918V464.919L199.793 465.786L200.187 467.243H183.687L185.341 459.918H186.719Z" fill="#4C73FF"/>
<path fill-rule="evenodd" clip-rule="evenodd" d="M204.164 459.918V464.919L217.238 465.786L217.592 467.243H201.132L202.786 459.918H204.164Z" fill="#4C73FF"/>
<path fill-rule="evenodd" clip-rule="evenodd" d="M221.609 459.918V464.919L234.682 465.786L235.037 467.243H218.577L220.23 459.918H221.609Z" fill="#4C73FF"/>
<path fill-rule="evenodd" clip-rule="evenodd" d="M239.054 459.918V464.919L252.088 465.786L252.482 467.243H236.021L237.675 459.918H239.054Z" fill="#4C73FF"/>
<path fill-rule="evenodd" clip-rule="evenodd" d="M256.498 459.918V464.919L269.533 465.786L269.927 467.243H253.466L255.081 459.918H256.498Z" fill="#4C73FF"/>
<path fill-rule="evenodd" clip-rule="evenodd" d="M282.725 459.918V464.919L295.759 465.786L296.153 467.243H279.693L281.307 459.918H282.725Z" fill="#4C73FF"/>
<path fill-rule="evenodd" clip-rule="evenodd" d="M300.169 459.918V464.919L313.204 465.786L313.598 467.243H297.098L298.752 459.918H300.169Z" fill="#4C73FF"/>
<path fill-rule="evenodd" clip-rule="evenodd" d="M317.575 459.918V464.919L330.649 465.786L331.042 467.243H314.543L316.197 459.918H317.575Z" fill="#4C73FF"/>
<path d="M222.672 316.225H149.467V402.149H222.672V316.225Z" fill="#4C73FF"/>
<path d="M351.559 126.852H20.5797V342.057H351.559V126.852Z" fill="#7491F5"/>
<path d="M336.556 142.367H35.5437V316.185H336.556V142.367Z" fill="#0B1A2B"/>
<path d="M248.898 402.149H123.201V422.036H248.898V402.149Z" fill="#7491F5"/>
<path fill-rule="evenodd" clip-rule="evenodd" d="M223.341 342.057L161.162 383.838V396.558L222.633 402.149H149.467V342.057H223.341Z" fill="#7491F5"/>
<path fill-rule="evenodd" clip-rule="evenodd" d="M35.5437 142.367V148.077H330.964L336.556 316.225V142.367H35.5437Z" fill="#4C73FF"/>
<path fill-rule="evenodd" clip-rule="evenodd" d="M295.365 171.783H41.0567L40.781 152.645H295.641L295.365 171.783Z" fill="#AABDFF"/>
<path fill-rule="evenodd" clip-rule="evenodd" d="M53.5397 156.819H186.05C189.042 156.819 191.484 159.261 191.484 162.253C191.484 165.246 189.042 167.688 186.05 167.688H53.5397C50.547 167.688 48.1055 165.246 48.1055 162.253C48.1055 159.261 50.547 156.819 53.5397 156.819Z" fill="#0B1A2B"/>
<path fill-rule="evenodd" clip-rule="evenodd" d="M279.417 156.819C282.41 156.819 284.851 159.261 284.851 162.253C284.851 165.246 282.41 167.688 279.417 167.688C276.424 167.688 273.982 165.246 273.982 162.253C274.022 159.221 276.424 156.819 279.417 156.819Z" fill="#0B1A2B"/>
<path fill-rule="evenodd" clip-rule="evenodd" d="M75.3556 187.495H261.106V191.433H75.3556V187.495ZM75.3556 278.579H261.106V282.516H75.3556V278.579ZM75.3556 267.159H261.106V271.097H75.3556V267.159ZM75.3556 255.778H261.106V259.716H75.3556V255.778ZM75.3556 244.398H261.106V248.336H75.3556V244.398ZM75.3556 233.017H261.106V236.955H75.3556V233.017ZM75.3556 221.637H261.106V225.575H75.3556V221.637ZM75.3556 210.256H261.106V214.194H75.3556V210.256ZM75.3556 198.876H261.106V202.814H75.3556V198.876Z" fill="#4C73FF"/>
<path fill-rule="evenodd" clip-rule="evenodd" d="M471.586 190.409C465.167 284.722 442.485 389.273 338.524 416.326L335.925 416.995L333.326 416.326C229.366 389.273 206.684 284.761 200.265 190.409L199.635 181.313L208.574 179.62C251.93 171.508 291.664 155.244 331.594 136.933L335.886 134.964L340.178 136.933C380.109 155.244 419.842 171.508 463.198 179.62L472.137 181.313L471.586 190.409Z" fill="#4C73FF"/>
<path fill-rule="evenodd" clip-rule="evenodd" d="M461.347 189.386C418.503 181.352 380.305 166.31 335.925 145.911C291.585 166.27 253.387 181.352 210.543 189.386C219.285 318.233 257.483 385.65 335.965 406.048C414.407 385.65 452.605 318.194 461.347 189.386Z" fill="#0729A5"/>
<path fill-rule="evenodd" clip-rule="evenodd" d="M441.461 204.271C404.799 195.686 370.421 182.022 335.965 166.467C301.508 182.022 267.17 195.686 230.469 204.271C235.628 261.567 249.607 332.409 296.665 367.457C308.557 376.317 321.828 382.499 335.965 386.634C350.102 382.46 363.373 376.317 375.265 367.457C422.323 332.409 436.302 261.567 441.461 204.271Z" fill="#9CB1FF"/>
<path fill-rule="evenodd" clip-rule="evenodd" d="M441.461 204.271C404.799 195.686 370.421 182.022 335.965 166.467V386.674C350.102 382.499 363.373 376.356 375.265 367.496C422.323 332.409 436.302 261.567 441.461 204.271Z" fill="#4C73FF"/>
<path fill-rule="evenodd" clip-rule="evenodd" d="M350.456 240.814C350.456 234.671 346.203 229.513 340.533 228.056C347.227 228.646 352.543 234.317 352.543 241.169V256.054L350.456 256.093V240.814ZM311.707 257.157V241.169C311.707 225.969 324.151 213.525 339.351 213.525C340.572 213.525 341.754 213.604 342.935 213.761C341.123 213.367 339.194 213.17 337.264 213.17C322.064 213.17 309.62 225.614 309.62 240.814V257.196L311.707 257.157Z" fill="#4C73FF"/>
<path fill-rule="evenodd" clip-rule="evenodd" d="M352.504 241.169C352.504 233.923 346.558 227.977 339.312 227.977C332.066 227.977 326.12 233.923 326.12 241.169V257.157L311.668 257.55V241.169C311.668 225.969 324.112 213.525 339.312 213.525C354.512 213.525 366.956 225.969 366.956 241.169V256.054L352.504 256.448V241.169Z" fill="#375AD6"/>
<path fill-rule="evenodd" clip-rule="evenodd" d="M308.203 253.888L378.494 255.818L380.463 338.907H308.203V253.888Z" fill="#E6E7E8"/>
<path fill-rule="evenodd" clip-rule="evenodd" d="M308.203 253.888L296.35 254.203L295.365 338.907H308.203V253.888Z" fill="#E6E7E8"/>
<path fill-rule="evenodd" clip-rule="evenodd" d="M348.999 254.991L322.655 254.282L308.203 253.888V338.907H380.463L378.494 255.818L363.491 255.385L348.999 254.991Z" fill="#EFF9FC"/>
<path fill-rule="evenodd" clip-rule="evenodd" d="M348.999 255.227L322.615 254.518L308.4 254.124V338.71H380.227L378.258 256.015L363.451 255.621L348.999 255.227ZM322.655 254.046L349.039 254.755L363.491 255.148L378.494 255.542H378.691V255.739L380.699 338.868V339.104H380.463H308.163H307.927V338.868V253.809V253.573H308.163L322.655 254.046Z" fill="#4C73FF"/>
<path fill-rule="evenodd" clip-rule="evenodd" d="M308.203 338.907V253.888L296.35 254.203L293.042 338.907H308.203Z" fill="#375AD6"/>
<path fill-rule="evenodd" clip-rule="evenodd" d="M307.927 338.671V254.124L296.586 254.439L293.318 338.671H307.927ZM308.439 253.888V338.946V339.183H308.203H293.042H292.766V338.907L296.074 254.203V253.967H296.31L308.163 253.652H308.439V253.888Z" fill="#4C73FF"/>
<path fill-rule="evenodd" clip-rule="evenodd" d="M375.974 262.394C375.974 262.236 376.092 262.158 376.21 262.118C376.368 262.118 376.446 262.236 376.486 262.355L377.194 291.692C377.194 291.849 377.076 291.928 376.958 291.967C376.84 291.967 376.722 291.849 376.722 291.731L375.974 262.394Z" fill="#4C73FF"/>
<path fill-rule="evenodd" clip-rule="evenodd" d="M312.889 334.93C312.731 334.93 312.653 334.812 312.653 334.694C312.653 334.536 312.771 334.457 312.889 334.457H342.226C342.384 334.457 342.462 334.575 342.462 334.694C342.462 334.851 342.344 334.93 342.226 334.93H312.889Z" fill="#4C73FF"/>
<path fill-rule="evenodd" clip-rule="evenodd" d="M309.975 256.763C309.975 256.645 310.093 256.527 310.211 256.527C310.369 256.527 310.447 256.645 310.447 256.763L310.408 280.981C310.408 281.138 310.29 281.217 310.172 281.217C310.014 281.217 309.935 281.099 309.935 280.981L309.975 256.763Z" fill="#4C73FF"/>
<path fill-rule="evenodd" clip-rule="evenodd" d="M304.225 310.436L304.147 334.654H303.714L303.753 310.436H304.225Z" fill="#4C73FF"/>
<path fill-rule="evenodd" clip-rule="evenodd" d="M350.141 314.256L345.455 289.92C344.904 290.471 344.234 290.904 343.565 291.298L347.975 314.295L350.141 314.256Z" fill="#375AD6"/>
<path fill-rule="evenodd" clip-rule="evenodd" d="M339.43 274.759C344.274 274.759 348.212 278.697 348.212 283.541C348.212 285.943 347.267 288.108 345.691 289.684C348.33 288.187 350.102 285.313 350.102 282.084C350.102 277.24 346.164 273.302 341.32 273.302C338.879 273.302 336.674 274.286 335.059 275.901C336.359 275.192 337.855 274.759 339.43 274.759Z" fill="#375AD6"/>
<path fill-rule="evenodd" clip-rule="evenodd" d="M341.32 273.144C343.801 273.144 346.006 274.129 347.66 275.743C349.275 277.358 350.259 279.603 350.259 282.083C350.259 283.777 349.787 285.352 348.999 286.691C348.172 288.03 347.03 289.172 345.652 289.92L350.299 314.217L350.338 314.413H350.141L333.011 314.532H332.815L332.854 314.335L338.328 290.51C336.595 289.88 335.099 288.778 334.035 287.281C332.972 285.824 332.342 284.013 332.342 282.083C332.342 279.603 333.326 277.397 334.941 275.743C336.634 274.129 338.879 273.144 341.32 273.144ZM347.424 275.98C345.888 274.444 343.722 273.459 341.36 273.459C338.997 273.459 336.831 274.405 335.295 275.98C333.76 277.515 332.775 279.681 332.775 282.044C332.775 283.934 333.366 285.667 334.39 287.045C335.414 288.502 336.91 289.605 338.643 290.195L338.8 290.235L338.761 290.392L333.287 314.138L349.984 314.02L345.337 289.802L345.298 289.684L345.416 289.605C346.794 288.857 347.936 287.754 348.763 286.415C349.551 285.116 349.984 283.619 349.984 282.005C349.944 279.681 348.96 277.555 347.424 275.98Z" fill="#4C73FF"/>
<path fill-rule="evenodd" clip-rule="evenodd" d="M348.212 283.54C348.212 278.697 344.274 274.759 339.43 274.759C338.052 274.759 336.792 275.074 335.65 275.625C335.532 275.743 335.374 275.862 335.256 275.98C333.72 277.516 332.736 279.681 332.736 282.044C332.736 283.934 333.326 285.667 334.35 287.045C335.374 288.502 336.871 289.605 338.603 290.196L338.761 290.235L338.721 290.392L333.248 314.138L347.936 314.059L343.565 291.259C344.195 290.904 344.786 290.511 345.337 290.038L345.298 289.841L345.258 289.723L345.376 289.644C345.652 289.526 345.888 289.369 346.125 289.211C347.424 287.675 348.212 285.706 348.212 283.54Z" fill="#4C73FF"/>
<path fill-rule="evenodd" clip-rule="evenodd" d="M441.461 204.271C404.799 195.686 370.421 182.022 335.965 166.467C301.508 182.022 267.17 195.686 230.469 204.271C230.587 205.728 230.745 207.224 230.902 208.681C245.63 205.058 331.751 171.508 335.965 173.398C369.24 188.283 402.476 201.317 437.917 209.626C434.097 252.195 425.394 302.285 401.846 339.576C428.072 301.812 437.444 248.926 441.461 204.271Z" fill="#021A72"/>
<path fill-rule="evenodd" clip-rule="evenodd" d="M301.508 283.068L244.409 284.249L243.858 284.092L182.112 240.342L183.175 238.806L244.685 282.359L301.469 281.178L301.508 283.068Z" fill="#4C73FF"/>
<path fill-rule="evenodd" clip-rule="evenodd" d="M269.336 283.422L260.2 294.291L259.964 294.606H259.531L182.702 298.583L182.584 296.693L259.058 292.755L267.918 282.202L269.336 283.422Z" fill="#4C73FF"/>
<path fill-rule="evenodd" clip-rule="evenodd" d="M300.642 297.323L269.021 298.032L255.671 313.075L255.199 313.35L189.121 328.196L188.688 326.345L254.49 311.578L267.879 296.457L268.154 296.142H268.588L300.603 295.433L300.642 297.323Z" fill="#4C73FF"/>
<path fill-rule="evenodd" clip-rule="evenodd" d="M300.603 267.356L268.588 266.647H268.154L267.879 266.332L254.411 251.132L187.94 219.904L188.727 218.172L255.396 249.517L255.671 249.753L269.021 264.796L300.642 265.466L300.603 267.356Z" fill="#4C73FF"/>
<path fill-rule="evenodd" clip-rule="evenodd" d="M379.321 280.351L418.897 281.256L480.406 237.664L481.509 239.2L419.724 282.95L419.172 283.147L379.321 282.241V280.351Z" fill="#4C73FF"/>
<path fill-rule="evenodd" clip-rule="evenodd" d="M395.703 281.06L404.563 291.613L480.997 295.59L480.879 297.441L404.051 293.464H403.657L403.381 293.149L394.245 282.28L395.703 281.06Z" fill="#4C73FF"/>
<path fill-rule="evenodd" clip-rule="evenodd" d="M379.124 272.199L409.328 271.806L417.676 235.262L417.794 234.829L418.188 234.632L492.456 196.474L493.323 198.167L419.409 236.089L410.982 272.948L410.824 273.696H410.076L379.124 274.089V272.199Z" fill="#4C73FF"/>
<path d="M485.679 218.064L413.933 253.226L414.765 254.924L486.511 219.761L485.679 218.064Z" fill="#4C73FF"/>
<path fill-rule="evenodd" clip-rule="evenodd" d="M379.793 300.276L436.578 316.186L437.129 316.343L437.247 316.934L443.745 358.557L441.855 358.872L435.475 317.839L379.833 302.285L379.793 300.276Z" fill="#4C73FF"/>
<path fill-rule="evenodd" clip-rule="evenodd" d="M219.719 320.793L207.472 364.661L205.621 364.149L217.907 320.281L219.719 320.793Z" fill="#4C73FF"/>
<path fill-rule="evenodd" clip-rule="evenodd" d="M220.703 234.75L216.411 168.082L218.301 167.964L222.593 234.632L220.703 234.75Z" fill="#4C73FF"/>
<path fill-rule="evenodd" clip-rule="evenodd" d="M216.883 146.62C223.814 146.62 229.406 152.212 229.406 159.143C229.406 166.073 223.814 171.665 216.883 171.665C209.953 171.665 204.361 166.073 204.361 159.143C204.361 152.212 209.953 146.62 216.883 146.62Z" fill="#AABDFF"/>
<path fill-rule="evenodd" clip-rule="evenodd" d="M227.161 166.743C224.877 169.775 221.254 171.744 217.159 171.744C210.228 171.744 204.636 166.152 204.636 159.221C204.636 154.89 206.802 151.109 210.15 148.865C208.574 150.952 207.629 153.551 207.629 156.386C207.629 163.317 213.221 168.909 220.152 168.909C222.711 168.869 225.153 168.082 227.161 166.743Z" fill="#0B1A2B"/>
<path fill-rule="evenodd" clip-rule="evenodd" d="M216.883 146.069C220.506 146.069 223.735 147.526 226.137 149.889C228.5 152.251 229.957 155.52 229.957 159.143C229.957 162.765 228.5 166.034 226.137 168.397C223.775 170.759 220.506 172.216 216.883 172.216C213.26 172.216 209.992 170.759 207.629 168.397C205.267 166.034 203.81 162.765 203.81 159.143C203.81 155.52 205.267 152.251 207.629 149.889C209.992 147.526 213.26 146.069 216.883 146.069ZM225.35 150.676C223.184 148.51 220.191 147.171 216.883 147.171C213.575 147.171 210.583 148.51 208.417 150.676C206.251 152.842 204.912 155.835 204.912 159.143C204.912 162.45 206.251 165.443 208.417 167.609C210.583 169.775 213.575 171.114 216.883 171.114C220.191 171.114 223.184 169.775 225.35 167.609C227.516 165.443 228.854 162.45 228.854 159.143C228.854 155.835 227.516 152.842 225.35 150.676Z" fill="#4C73FF"/>
<path fill-rule="evenodd" clip-rule="evenodd" d="M496.867 184.306C502.656 184.306 507.381 188.992 507.381 194.82C507.381 200.609 502.695 205.334 496.867 205.334C491.078 205.334 486.353 200.648 486.353 194.82C486.353 189.031 491.039 184.306 496.867 184.306Z" fill="#AABDFF"/>
<path fill-rule="evenodd" clip-rule="evenodd" d="M505.451 201.199C503.522 203.759 500.49 205.413 497.064 205.413C491.275 205.413 486.55 200.727 486.55 194.899C486.55 191.276 488.361 188.086 491.157 186.196C489.818 187.968 489.03 190.134 489.03 192.497C489.03 198.285 493.717 203.011 499.545 203.011C501.75 203.011 503.797 202.341 505.451 201.199Z" fill="#0B1A2B"/>
<path fill-rule="evenodd" clip-rule="evenodd" d="M496.867 183.873C499.899 183.873 502.616 185.093 504.624 187.102C506.593 189.071 507.853 191.827 507.853 194.859C507.853 197.891 506.633 200.609 504.624 202.617C502.656 204.586 499.899 205.846 496.867 205.846C493.835 205.846 491.117 204.625 489.109 202.617C487.14 200.648 485.88 197.891 485.88 194.859C485.88 191.827 487.101 189.11 489.109 187.102C491.078 185.093 493.835 183.873 496.867 183.873ZM503.955 187.732C502.144 185.92 499.623 184.778 496.827 184.778C494.032 184.778 491.551 185.92 489.7 187.732C487.888 189.543 486.746 192.063 486.746 194.859C486.746 197.655 487.888 200.136 489.7 201.987C491.511 203.798 494.032 204.94 496.827 204.94C499.623 204.94 502.104 203.798 503.955 201.987C505.766 200.175 506.908 197.655 506.908 194.859C506.908 192.063 505.766 189.543 503.955 187.732Z" fill="#4C73FF"/>
<path fill-rule="evenodd" clip-rule="evenodd" d="M486.471 212.383C490.566 212.383 493.913 215.691 493.913 219.825C493.913 223.921 490.606 227.268 486.471 227.268C482.375 227.268 479.028 223.96 479.028 219.825C479.068 215.691 482.375 212.383 486.471 212.383Z" fill="#AABDFF"/>
<path fill-rule="evenodd" clip-rule="evenodd" d="M492.575 224.315C491.236 226.126 489.07 227.268 486.628 227.268C482.533 227.268 479.186 223.96 479.186 219.825C479.186 217.266 480.485 215.021 482.454 213.682C481.509 214.942 480.958 216.478 480.958 218.132C480.958 222.228 484.266 225.575 488.4 225.575C489.936 225.575 491.393 225.102 492.575 224.315Z" fill="#0B1A2B"/>
<path fill-rule="evenodd" clip-rule="evenodd" d="M486.471 212.068C488.597 212.068 490.566 212.934 491.944 214.352C493.362 215.769 494.228 217.699 494.228 219.825C494.228 221.952 493.362 223.921 491.944 225.299C490.527 226.717 488.597 227.583 486.471 227.583C484.344 227.583 482.375 226.717 480.997 225.299C479.579 223.881 478.713 221.952 478.713 219.825C478.713 217.699 479.579 215.73 480.997 214.352C482.415 212.934 484.344 212.068 486.471 212.068ZM491.511 214.785C490.212 213.485 488.44 212.698 486.471 212.698C484.502 212.698 482.73 213.485 481.43 214.785C480.131 216.084 479.343 217.857 479.343 219.825C479.343 221.794 480.131 223.566 481.43 224.866C482.73 226.165 484.502 226.953 486.471 226.953C488.44 226.953 490.212 226.165 491.511 224.866C492.811 223.566 493.598 221.794 493.598 219.825C493.598 217.857 492.811 216.045 491.511 214.785Z" fill="#4C73FF"/>
<path fill-rule="evenodd" clip-rule="evenodd" d="M482.887 231.206C487.298 231.206 490.921 234.789 490.921 239.239C490.921 243.65 487.337 247.272 482.887 247.272C478.477 247.272 474.854 243.689 474.854 239.239C474.894 234.789 478.477 231.206 482.887 231.206Z" fill="#AABDFF"/>
<path fill-rule="evenodd" clip-rule="evenodd" d="M489.464 244.083C488.007 246.012 485.683 247.272 483.045 247.272C478.635 247.272 475.012 243.689 475.012 239.239C475.012 236.483 476.39 234.041 478.516 232.584C477.493 233.923 476.902 235.577 476.902 237.388C476.902 241.799 480.485 245.422 484.935 245.422C486.668 245.461 488.204 244.949 489.464 244.083Z" fill="#0B1A2B"/>
<path fill-rule="evenodd" clip-rule="evenodd" d="M482.887 230.891C485.211 230.891 487.298 231.836 488.794 233.332C490.291 234.829 491.236 236.955 491.236 239.239C491.236 241.563 490.291 243.65 488.794 245.146C487.298 246.642 485.171 247.587 482.887 247.587C480.564 247.587 478.477 246.642 476.981 245.146C475.484 243.65 474.539 241.523 474.539 239.239C474.539 236.916 475.484 234.829 476.981 233.332C478.516 231.797 480.603 230.891 482.887 230.891ZM488.322 233.805C486.943 232.427 485.014 231.56 482.887 231.56C480.761 231.56 478.831 232.427 477.453 233.805C476.075 235.183 475.209 237.113 475.209 239.239C475.209 241.366 476.075 243.295 477.453 244.673C478.831 246.052 480.761 246.918 482.887 246.918C485.014 246.918 486.943 246.052 488.322 244.673C489.7 243.295 490.566 241.366 490.566 239.239C490.566 237.113 489.739 235.183 488.322 233.805Z" fill="#4C73FF"/>
<path fill-rule="evenodd" clip-rule="evenodd" d="M490.881 281.453C500.017 281.453 507.42 288.856 507.42 297.992C507.42 307.128 500.017 314.531 490.881 314.531C481.745 314.531 474.342 307.128 474.342 297.992C474.342 288.856 481.745 281.453 490.881 281.453Z" fill="#AABDFF"/>
<path fill-rule="evenodd" clip-rule="evenodd" d="M504.428 307.955C501.395 311.972 496.63 314.571 491.236 314.571C482.1 314.571 474.696 307.168 474.696 298.032C474.696 292.322 477.571 287.321 481.942 284.367C479.855 287.124 478.634 290.55 478.634 294.291C478.634 303.427 486.038 310.83 495.173 310.83C498.599 310.83 501.789 309.767 504.428 307.955Z" fill="#0B1A2B"/>
<path fill-rule="evenodd" clip-rule="evenodd" d="M490.881 280.745C495.646 280.745 499.938 282.674 503.049 285.785C506.16 288.896 508.09 293.228 508.09 297.953C508.09 302.718 506.16 307.01 503.049 310.121C499.938 313.232 495.607 315.162 490.881 315.162C486.116 315.162 481.824 313.232 478.713 310.121C475.602 307.01 473.673 302.679 473.673 297.953C473.673 293.188 475.602 288.896 478.713 285.785C481.824 282.674 486.116 280.745 490.881 280.745ZM502.065 286.769C499.19 283.895 495.252 282.123 490.881 282.123C486.51 282.123 482.572 283.895 479.698 286.769C476.823 289.644 475.051 293.582 475.051 297.953C475.051 302.324 476.823 306.262 479.698 309.137C482.572 312.011 486.51 313.783 490.881 313.783C495.252 313.783 499.19 312.011 502.065 309.137C504.939 306.262 506.712 302.324 506.712 297.953C506.672 293.582 504.9 289.644 502.065 286.769Z" fill="#4C73FF"/>
<path fill-rule="evenodd" clip-rule="evenodd" d="M444.65 356.903C451.581 356.903 457.173 362.495 457.173 369.426C457.173 376.356 451.581 381.948 444.65 381.948C437.72 381.948 432.128 376.356 432.128 369.426C432.128 362.495 437.759 356.903 444.65 356.903Z" fill="#AABDFF"/>
<path fill-rule="evenodd" clip-rule="evenodd" d="M454.928 377.026C452.644 380.058 449.022 382.027 444.926 382.027C437.995 382.027 432.404 376.435 432.404 369.505C432.404 365.173 434.569 361.392 437.917 359.148C436.342 361.235 435.396 363.834 435.396 366.669C435.396 373.6 440.988 379.192 447.919 379.192C450.518 379.152 452.92 378.365 454.928 377.026Z" fill="#0B1A2B"/>
<path fill-rule="evenodd" clip-rule="evenodd" d="M444.65 356.352C448.273 356.352 451.502 357.809 453.904 360.172C456.267 362.534 457.724 365.803 457.724 369.426C457.724 373.049 456.267 376.317 453.904 378.68C451.542 381.042 448.273 382.499 444.65 382.499C441.028 382.499 437.759 381.042 435.396 378.68C433.034 376.317 431.577 373.049 431.577 369.426C431.577 365.803 433.034 362.534 435.396 360.172C437.798 357.809 441.067 356.352 444.65 356.352ZM453.117 360.959C450.951 358.793 447.958 357.455 444.65 357.455C441.343 357.455 438.35 358.793 436.184 360.959C434.018 363.125 432.679 366.118 432.679 369.426C432.679 372.734 434.018 375.726 436.184 377.892C438.35 380.058 441.343 381.397 444.65 381.397C447.958 381.397 450.951 380.058 453.117 377.892C455.283 375.726 456.622 372.734 456.622 369.426C456.661 366.118 455.322 363.125 453.117 360.959Z" fill="#4C73FF"/>
<path fill-rule="evenodd" clip-rule="evenodd" d="M205.621 351.626C212.552 351.626 218.143 357.218 218.143 364.149C218.143 371.08 212.552 376.671 205.621 376.671C198.69 376.671 193.098 371.08 193.098 364.149C193.098 357.258 198.73 351.626 205.621 351.626Z" fill="#AABDFF"/>
<path fill-rule="evenodd" clip-rule="evenodd" d="M215.899 371.749C213.615 374.781 209.992 376.75 205.897 376.75C198.966 376.75 193.374 371.158 193.374 364.228C193.374 359.896 195.54 356.116 198.887 353.871C197.312 355.958 196.367 358.557 196.367 361.392C196.367 368.323 201.959 373.915 208.889 373.915C211.488 373.915 213.89 373.088 215.899 371.749Z" fill="#0B1A2B"/>
<path fill-rule="evenodd" clip-rule="evenodd" d="M205.621 351.115C209.244 351.115 212.473 352.572 214.875 354.934C217.238 357.297 218.695 360.565 218.695 364.188C218.695 367.811 217.238 371.08 214.875 373.442C212.512 375.805 209.244 377.262 205.621 377.262C201.998 377.262 198.73 375.805 196.367 373.442C194.004 371.08 192.547 367.811 192.547 364.188C192.547 360.565 194.004 357.297 196.367 354.934C198.769 352.572 202.037 351.115 205.621 351.115ZM214.127 355.682C211.961 353.517 208.968 352.178 205.66 352.178C202.352 352.178 199.36 353.517 197.194 355.682C195.028 357.848 193.689 360.841 193.689 364.149C193.689 367.457 195.028 370.45 197.194 372.615C199.36 374.781 202.352 376.12 205.66 376.12C208.968 376.12 211.961 374.781 214.127 372.615C216.293 370.45 217.631 367.457 217.631 364.149C217.631 360.841 216.293 357.848 214.127 355.682Z" fill="#4C73FF"/>
<path fill-rule="evenodd" clip-rule="evenodd" d="M180.3 315.122C187.231 315.122 192.823 320.714 192.823 327.645C192.823 334.575 187.231 340.167 180.3 340.167C173.37 340.167 167.778 334.575 167.778 327.645C167.778 320.714 173.37 315.122 180.3 315.122Z" fill="#AABDFF"/>
<path fill-rule="evenodd" clip-rule="evenodd" d="M190.578 335.245C188.294 338.277 184.671 340.246 180.576 340.246C173.645 340.246 168.053 334.654 168.053 327.723C168.053 323.392 170.219 319.611 173.566 317.367C171.991 319.454 171.046 322.053 171.046 324.888C171.046 331.819 176.638 337.411 183.569 337.411C186.168 337.371 188.57 336.584 190.578 335.245Z" fill="#0B1A2B"/>
<path fill-rule="evenodd" clip-rule="evenodd" d="M180.3 314.571C183.923 314.571 187.152 316.028 189.554 318.391C191.917 320.753 193.374 324.022 193.374 327.645C193.374 331.268 191.917 334.536 189.554 336.899C187.192 339.261 183.923 340.718 180.3 340.718C176.677 340.718 173.409 339.261 171.046 336.899C168.684 334.536 167.227 331.268 167.227 327.645C167.227 324.022 168.684 320.753 171.046 318.391C173.409 316.067 176.677 314.571 180.3 314.571ZM188.767 319.178C186.601 317.012 183.608 315.674 180.3 315.674C176.992 315.674 174 317.012 171.834 319.178C169.668 321.344 168.329 324.337 168.329 327.645C168.329 330.953 169.668 333.945 171.834 336.111C174 338.277 176.992 339.616 180.3 339.616C183.608 339.616 186.601 338.277 188.767 336.111C190.933 333.945 192.271 330.953 192.271 327.645C192.271 324.337 190.933 321.344 188.767 319.178Z" fill="#4C73FF"/>
<path fill-rule="evenodd" clip-rule="evenodd" d="M183.057 289.92C186.798 289.92 189.83 292.952 189.83 296.693C189.83 300.434 186.798 303.466 183.057 303.466C179.316 303.466 176.284 300.434 176.284 296.693C176.323 292.952 179.316 289.92 183.057 289.92Z" fill="#AABDFF"/>
<path fill-rule="evenodd" clip-rule="evenodd" d="M188.609 300.788C187.388 302.442 185.42 303.505 183.214 303.505C179.473 303.505 176.441 300.473 176.441 296.732C176.441 294.409 177.623 292.361 179.395 291.141C178.528 292.282 178.056 293.661 178.056 295.196C178.056 298.937 181.088 301.97 184.829 301.97C186.247 301.93 187.546 301.537 188.609 300.788Z" fill="#0B1A2B"/>
<path fill-rule="evenodd" clip-rule="evenodd" d="M183.057 289.644C184.986 289.644 186.758 290.432 188.058 291.692C189.318 292.952 190.106 294.724 190.106 296.693C190.106 298.622 189.318 300.394 188.058 301.694C186.798 302.954 185.026 303.781 183.057 303.781C181.127 303.781 179.355 302.993 178.056 301.694C176.796 300.434 176.008 298.662 176.008 296.693C176.008 294.763 176.796 292.991 178.095 291.692C179.355 290.432 181.127 289.644 183.057 289.644ZM187.664 292.125C186.483 290.944 184.868 290.235 183.096 290.235C181.324 290.235 179.67 290.944 178.528 292.125C177.347 293.306 176.638 294.921 176.638 296.693C176.638 298.465 177.347 300.119 178.528 301.261C179.71 302.442 181.324 303.151 183.096 303.151C184.868 303.151 186.522 302.442 187.664 301.261C188.845 300.079 189.554 298.465 189.554 296.693C189.554 294.881 188.806 293.267 187.664 292.125Z" fill="#4C73FF"/>
<path fill-rule="evenodd" clip-rule="evenodd" d="M182.112 227.229C189.357 227.229 195.225 233.096 195.225 240.342C195.225 247.587 189.357 253.455 182.112 253.455C174.866 253.455 168.999 247.587 168.999 240.342C168.959 233.096 174.866 227.229 182.112 227.229Z" fill="#AABDFF"/>
<path fill-rule="evenodd" clip-rule="evenodd" d="M192.862 248.296C190.46 251.486 186.64 253.534 182.387 253.534C175.142 253.534 169.274 247.666 169.274 240.421C169.274 235.892 171.558 231.915 175.024 229.552C173.37 231.757 172.385 234.474 172.385 237.428C172.385 244.673 178.253 250.541 185.498 250.541C188.215 250.58 190.775 249.714 192.862 248.296Z" fill="#0B1A2B"/>
<path fill-rule="evenodd" clip-rule="evenodd" d="M182.112 226.677C185.892 226.677 189.318 228.213 191.799 230.694C194.28 233.175 195.816 236.601 195.816 240.381C195.816 244.161 194.28 247.587 191.799 250.068C189.318 252.549 185.892 254.085 182.112 254.085C178.331 254.085 174.905 252.549 172.425 250.068C169.944 247.587 168.408 244.161 168.408 240.381C168.408 236.601 169.944 233.175 172.425 230.694C174.905 228.213 178.331 226.677 182.112 226.677ZM190.972 231.481C188.688 229.197 185.577 227.819 182.072 227.819C178.607 227.819 175.457 229.237 173.173 231.481C170.889 233.765 169.511 236.876 169.511 240.381C169.511 243.846 170.928 246.997 173.173 249.281C175.457 251.565 178.568 252.943 182.072 252.943C185.538 252.943 188.688 251.525 190.972 249.281C193.256 246.997 194.634 243.886 194.634 240.381C194.674 236.876 193.256 233.726 190.972 231.481Z" fill="#4C73FF"/>
<path fill-rule="evenodd" clip-rule="evenodd" d="M188.885 211.635C192.626 211.635 195.658 214.667 195.658 218.408C195.658 222.149 192.626 225.181 188.885 225.181C185.144 225.181 182.112 222.149 182.112 218.408C182.112 214.667 185.144 211.635 188.885 211.635Z" fill="#AABDFF"/>
<path fill-rule="evenodd" clip-rule="evenodd" d="M194.437 222.503C193.217 224.157 191.248 225.22 189.042 225.22C185.301 225.22 182.269 222.188 182.269 218.447C182.269 216.124 183.451 214.076 185.223 212.855C184.356 213.997 183.884 215.376 183.884 216.911C183.884 220.652 186.916 223.685 190.657 223.685C192.035 223.685 193.335 223.251 194.437 222.503Z" fill="#0B1A2B"/>
<path fill-rule="evenodd" clip-rule="evenodd" d="M188.885 211.359C190.815 211.359 192.587 212.147 193.886 213.446C195.146 214.706 195.973 216.478 195.973 218.447C195.973 220.377 195.186 222.149 193.886 223.448C192.626 224.708 190.854 225.535 188.885 225.535C186.916 225.535 185.183 224.748 183.884 223.488C182.624 222.228 181.836 220.456 181.836 218.487C181.836 216.557 182.624 214.785 183.923 213.485C185.144 212.147 186.916 211.359 188.885 211.359ZM193.453 213.84C192.272 212.659 190.657 211.95 188.885 211.95C187.113 211.95 185.459 212.659 184.317 213.84C183.136 215.021 182.427 216.636 182.427 218.408C182.427 220.18 183.136 221.834 184.317 222.976C185.498 224.157 187.113 224.866 188.885 224.866C190.657 224.866 192.311 224.157 193.453 222.976C194.634 221.794 195.343 220.18 195.343 218.408C195.343 216.636 194.634 215.021 193.453 213.84Z" fill="#4C73FF"/>
<path fill-rule="evenodd" clip-rule="evenodd" d="M291.821 1.43042C300.957 1.43042 308.36 8.83364 308.36 17.9695C308.36 27.1054 300.957 34.5086 291.821 34.5086C282.685 34.5086 275.282 27.1054 275.282 17.9695C275.282 8.83364 282.685 1.43042 291.821 1.43042Z" fill="#4C73FF"/>
<path fill-rule="evenodd" clip-rule="evenodd" d="M305.368 27.9717C302.335 31.9884 297.57 34.5874 292.176 34.5874C283.04 34.5874 275.636 27.1841 275.636 18.0482C275.636 12.3383 278.511 7.3372 282.882 4.38379C280.795 7.14031 279.574 10.5663 279.574 14.3073C279.574 23.4431 286.978 30.8464 296.113 30.8464C299.539 30.807 302.729 29.7438 305.368 27.9717Z" fill="#0B1A2B"/>
<path fill-rule="evenodd" clip-rule="evenodd" d="M291.821 0.721558C296.586 0.721558 300.878 2.65113 303.989 5.76206C307.1 8.87299 309.03 13.2047 309.03 17.9301C309.03 22.695 307.1 26.9872 303.989 30.0982C300.878 33.2091 296.547 35.1387 291.821 35.1387C287.056 35.1387 282.764 33.2091 279.653 30.0982C276.542 26.9872 274.613 22.6556 274.613 17.9301C274.613 13.1653 276.542 8.87299 279.653 5.76206C282.725 2.65113 287.056 0.721558 291.821 0.721558ZM303.005 6.78591C300.13 3.91125 296.192 2.1392 291.821 2.1392C287.45 2.1392 283.512 3.91125 280.638 6.78591C277.763 9.66056 275.991 13.5984 275.991 17.9695C275.991 22.3405 277.763 26.2784 280.638 29.1531C283.512 32.0277 287.45 33.7998 291.821 33.7998C296.192 33.7998 300.13 32.0277 303.005 29.1531C305.879 26.2784 307.651 22.3405 307.651 17.9695C307.612 13.5984 305.84 9.62119 303.005 6.78591Z" fill="#4C73FF"/>
<path fill-rule="evenodd" clip-rule="evenodd" d="M130.132 70.9734C135.448 70.9734 139.74 75.2657 139.74 80.5818C139.74 85.898 135.448 90.1903 130.132 90.1903C124.815 90.1903 120.523 85.898 120.523 80.5818C120.523 75.2657 124.815 70.9734 130.132 70.9734Z" fill="#4C73FF"/>
<path fill-rule="evenodd" clip-rule="evenodd" d="M138.007 86.3705C136.275 88.6939 133.479 90.1903 130.329 90.1903C125.012 90.1903 120.72 85.898 120.72 80.5818C120.72 77.274 122.374 74.36 124.934 72.6273C123.713 74.2419 123.004 76.2108 123.004 78.3766C123.004 83.6928 127.296 87.9851 132.613 87.9851C134.621 88.0244 136.472 87.4338 138.007 86.3705Z" fill="#0B1A2B"/>
<path fill-rule="evenodd" clip-rule="evenodd" d="M130.132 70.5796C132.888 70.5796 135.408 71.6822 137.22 73.4936C139.031 75.305 140.134 77.8253 140.134 80.5818C140.134 83.3383 139.031 85.8586 137.22 87.67C135.408 89.4814 132.888 90.584 130.132 90.584C127.375 90.584 124.855 89.4814 123.043 87.67C121.232 85.8586 120.129 83.3383 120.129 80.5818C120.129 77.8253 121.232 75.305 123.043 73.4936C124.855 71.6822 127.375 70.5796 130.132 70.5796ZM136.629 74.0843C134.975 72.4304 132.691 71.4065 130.132 71.4065C127.611 71.4065 125.288 72.4304 123.634 74.0843C121.98 75.7382 120.956 78.0222 120.956 80.5818C120.956 83.102 121.98 85.4254 123.634 87.0793C125.288 88.7332 127.611 89.7571 130.132 89.7571C132.652 89.7571 134.975 88.7332 136.629 87.0793C138.283 85.4254 139.307 83.1414 139.307 80.5818C139.307 78.0222 138.283 75.7382 136.629 74.0843Z" fill="#4C73FF"/>
<path fill-rule="evenodd" clip-rule="evenodd" d="M263.626 430.62C268.942 430.62 273.234 434.913 273.234 440.229C273.234 445.545 268.942 449.837 263.626 449.837C258.31 449.837 254.018 445.545 254.018 440.229C254.018 434.913 258.31 430.62 263.626 430.62Z" fill="#AABDFF"/>
<path fill-rule="evenodd" clip-rule="evenodd" d="M271.502 446.018C269.769 448.341 266.973 449.837 263.823 449.837C258.507 449.837 254.214 445.545 254.214 440.229C254.214 436.921 255.868 434.007 258.428 432.274C257.207 433.889 256.498 435.858 256.498 438.024C256.498 443.34 260.791 447.632 266.107 447.632C268.115 447.671 269.966 447.081 271.502 446.018Z" fill="#0B1A2B"/>
<path fill-rule="evenodd" clip-rule="evenodd" d="M263.626 430.227C266.382 430.227 268.903 431.329 270.714 433.141C272.526 434.952 273.628 437.472 273.628 440.229C273.628 442.985 272.526 445.506 270.714 447.317C268.903 449.129 266.382 450.231 263.626 450.231C260.869 450.231 258.349 449.129 256.538 447.317C254.726 445.506 253.624 442.985 253.624 440.229C253.624 437.472 254.726 434.952 256.538 433.141C258.349 431.329 260.869 430.227 263.626 430.227ZM270.123 433.731C268.47 432.077 266.186 431.054 263.626 431.054C261.106 431.054 258.782 432.077 257.128 433.731C255.475 435.385 254.451 437.669 254.451 440.229C254.451 442.749 255.475 445.073 257.128 446.726C258.782 448.38 261.066 449.404 263.626 449.404C266.146 449.404 268.47 448.38 270.123 446.726C271.777 445.073 272.801 442.749 272.801 440.229C272.801 437.669 271.777 435.385 270.123 433.731Z" fill="#4C73FF"/>
<path fill-rule="evenodd" clip-rule="evenodd" d="M455.558 423.375C463.985 423.375 470.798 430.187 470.798 438.614C470.798 447.041 463.985 453.854 455.558 453.854C447.131 453.854 440.319 447.041 440.319 438.614C440.319 430.187 447.131 423.375 455.558 423.375Z" fill="#4C73FF"/>
<path fill-rule="evenodd" clip-rule="evenodd" d="M468.041 447.829C465.246 451.531 460.835 453.893 455.873 453.893C447.446 453.893 440.634 447.081 440.634 438.654C440.634 433.416 443.272 428.77 447.328 426.052C445.399 428.612 444.257 431.762 444.257 435.188C444.257 443.615 451.069 450.428 459.496 450.428C462.647 450.467 465.6 449.483 468.041 447.829Z" fill="#0B1A2B"/>
<path fill-rule="evenodd" clip-rule="evenodd" d="M455.558 422.705C459.929 422.705 463.907 424.477 466.781 427.352C469.656 430.227 471.428 434.204 471.428 438.575C471.428 442.946 469.656 446.923 466.781 449.798C463.907 452.672 459.929 454.445 455.558 454.445C451.187 454.445 447.21 452.672 444.335 449.798C441.461 446.923 439.689 442.946 439.689 438.575C439.689 434.204 441.461 430.227 444.335 427.352C447.171 424.477 451.148 422.705 455.558 422.705ZM465.836 428.297C463.198 425.659 459.536 424.044 455.519 424.044C451.502 424.044 447.84 425.659 445.202 428.297C442.563 430.935 440.949 434.598 440.949 438.614C440.949 442.631 442.563 446.293 445.202 448.931C447.84 451.57 451.502 453.184 455.519 453.184C459.536 453.184 463.198 451.57 465.836 448.931C468.475 446.293 470.089 442.631 470.089 438.614C470.129 434.598 468.475 430.935 465.836 428.297Z" fill="#4C73FF"/>
<path fill-rule="evenodd" clip-rule="evenodd" d="M193.059 50.4177C193.059 44.2746 198.021 39.3128 204.164 39.3128C210.307 39.3128 215.269 44.2746 215.269 50.4177C215.269 56.5608 210.307 61.5225 204.164 61.5225C198.021 61.5225 193.059 56.5214 193.059 50.4177ZM204.164 63.4127C211.331 63.4127 217.159 57.5846 217.159 50.4177C217.159 43.2507 211.331 37.4227 204.164 37.4227C196.997 37.4227 191.169 43.2507 191.169 50.4177C191.129 57.5846 196.957 63.4127 204.164 63.4127Z" fill="#0B1A2B"/>
<path fill-rule="evenodd" clip-rule="evenodd" d="M204.164 44.432C200.856 44.432 198.178 47.1098 198.178 50.4176C198.178 53.7254 200.856 56.4032 204.164 56.4032C207.472 56.4032 210.149 53.7254 210.149 50.4176C210.149 47.1098 207.472 44.432 204.164 44.432Z" fill="#0B1A2B"/>
<path fill-rule="evenodd" clip-rule="evenodd" d="M372.115 421.603C372.115 415.46 377.076 410.498 383.219 410.498C389.363 410.498 394.324 415.46 394.324 421.603C394.324 427.746 389.363 432.708 383.219 432.708C377.076 432.668 372.115 427.706 372.115 421.603ZM383.219 434.598C390.426 434.598 396.214 428.77 396.214 421.603C396.214 414.436 390.386 408.608 383.219 408.608C376.052 408.608 370.224 414.436 370.224 421.603C370.224 428.77 376.013 434.598 383.219 434.598Z" fill="#0B1A2B"/>
<path fill-rule="evenodd" clip-rule="evenodd" d="M383.22 415.578C379.912 415.578 377.234 418.255 377.234 421.563C377.234 424.871 379.912 427.549 383.22 427.549C386.527 427.549 389.205 424.871 389.205 421.563C389.205 418.255 386.527 415.578 383.22 415.578Z" fill="#0B1A2B"/>
<path fill-rule="evenodd" clip-rule="evenodd" d="M102.527 375.49C102.527 369.347 107.489 364.385 113.632 364.385C119.775 364.385 124.737 369.347 124.737 375.49C124.737 381.633 119.775 386.595 113.632 386.595C107.489 386.555 102.527 381.594 102.527 375.49ZM113.632 388.485C120.799 388.485 126.627 382.657 126.627 375.49C126.627 368.323 120.799 362.495 113.632 362.495C106.426 362.495 100.637 368.323 100.637 375.49C100.637 382.657 106.465 388.485 113.632 388.485Z" fill="#0B1A2B"/>
<path fill-rule="evenodd" clip-rule="evenodd" d="M113.632 369.465C110.324 369.465 107.646 372.143 107.646 375.451C107.646 378.759 110.324 381.436 113.632 381.436C116.94 381.436 119.618 378.759 119.618 375.451C119.618 372.143 116.94 369.465 113.632 369.465Z" fill="#0B1A2B"/>
<path fill-rule="evenodd" clip-rule="evenodd" d="M314.503 82.9446C319.819 82.9446 324.112 87.2369 324.112 92.553C324.112 97.8692 319.819 102.161 314.503 102.161C309.187 102.161 304.895 97.8692 304.895 92.553C304.934 87.2369 309.227 82.9446 314.503 82.9446Z" fill="#4C73FF"/>
<path fill-rule="evenodd" clip-rule="evenodd" d="M322.379 98.3417C320.646 100.665 317.851 102.161 314.7 102.161C309.384 102.161 305.092 97.8691 305.092 92.553C305.092 89.2452 306.746 86.3311 309.305 84.5984C308.085 86.213 307.376 88.1819 307.376 90.3478C307.376 95.6639 311.668 99.9562 316.984 99.9562C318.993 99.9956 320.843 99.4049 322.379 98.3417Z" fill="#0B1A2B"/>
<path fill-rule="evenodd" clip-rule="evenodd" d="M314.503 82.5507C317.26 82.5507 319.78 83.6533 321.592 85.4648C323.403 87.2762 324.506 89.7964 324.506 92.553C324.506 95.3095 323.403 97.8297 321.592 99.6411C319.78 101.453 317.26 102.555 314.503 102.555C311.747 102.555 309.227 101.453 307.415 99.6411C305.604 97.8297 304.501 95.3095 304.501 92.553C304.501 89.7964 305.604 87.2762 307.415 85.4648C309.266 83.6533 311.747 82.5507 314.503 82.5507ZM321.001 86.0554C319.347 84.4015 317.063 83.3777 314.503 83.3777C311.983 83.3777 309.66 84.4015 308.006 86.0554C306.352 87.7094 305.328 89.9933 305.328 92.553C305.328 95.0732 306.352 97.3966 308.006 99.0505C309.66 100.704 311.944 101.728 314.503 101.728C317.024 101.728 319.347 100.704 321.001 99.0505C322.655 97.3966 323.679 95.1126 323.679 92.553C323.679 89.9933 322.655 87.7094 321.001 86.0554Z" fill="#4C73FF"/>
</svg>
