<svg width="33" height="38" viewBox="0 0 33 38" fill="none" xmlns="http://www.w3.org/2000/svg">
<path d="M18.3667 38C18.5346 38 18.6957 37.9333 18.8145 37.8145C18.9333 37.6957 19 37.5346 19 37.3667V35.4667H19.6333C19.8013 35.4667 19.9624 35.3999 20.0812 35.2812C20.1999 35.1624 20.2667 35.0013 20.2667 34.8333V32.9333H20.9C21.068 32.9333 21.2291 32.8666 21.3478 32.7478C21.4666 32.6291 21.5333 32.468 21.5333 32.3V26.6709C23.4322 25.7256 25.0304 24.2703 26.1489 22.4681C27.2675 20.6658 27.8623 18.5878 27.8667 16.4667C27.8667 10.1815 22.7519 5.06667 16.4667 5.06667C10.1815 5.06667 5.06667 10.1815 5.06667 16.4667C5.07105 18.5878 5.66584 20.6658 6.7844 22.4681C7.90297 24.2703 9.50116 25.7256 11.4 26.6709V32.3C11.4 32.468 11.4667 32.6291 11.5855 32.7478C11.7043 32.8666 11.8654 32.9333 12.0333 32.9333H12.6667V34.8333C12.6667 35.0013 12.7334 35.1624 12.8522 35.2812C12.9709 35.3999 13.132 35.4667 13.3 35.4667H13.9333V37.3667C13.9333 37.5346 14.0001 37.6957 14.1188 37.8145C14.2376 37.9333 14.3987 38 14.5667 38C14.7346 38 14.8957 37.9333 15.0145 37.8145C15.1333 37.6957 15.2 37.5346 15.2 37.3667V35.4667H17.7333V37.3667C17.7333 37.5346 17.8001 37.6957 17.9188 37.8145C18.0376 37.9333 18.1987 38 18.3667 38ZM12.2955 25.6931C10.5214 24.8892 9.01592 23.5919 7.95875 21.9559C6.90159 20.32 6.33735 18.4145 6.33333 16.4667C6.33333 10.8794 10.8794 6.33333 16.4667 6.33333C22.0539 6.33333 26.6 10.8794 26.6 16.4667C26.596 18.4145 26.0317 20.32 24.9746 21.9559C23.9174 23.5919 22.412 24.8892 20.6378 25.6931C20.527 25.7435 20.433 25.8248 20.3672 25.9272C20.3014 26.0297 20.2665 26.1489 20.2667 26.2707V31.6667H18.3667V26.7153L20.2261 21.7563C20.269 21.6332 20.2717 21.4997 20.2337 21.375C20.2489 21.3231 20.2667 21.2724 20.2667 21.2167C20.2667 19.9943 19.2723 19 18.05 19C17.4293 19 16.8695 19.2584 16.4667 19.6701C16.2609 19.4583 16.0148 19.2899 15.7428 19.1748C15.4709 19.0597 15.1786 19.0003 14.8833 19C13.661 19 12.6667 19.9943 12.6667 21.2167C12.6667 21.2724 12.6844 21.3231 12.6983 21.375C12.661 21.4998 12.6636 21.6331 12.7059 21.7563L14.5654 26.7153V31.6667H12.6667V26.2707C12.6669 26.1489 12.632 26.0297 12.5662 25.9272C12.5003 25.8248 12.4064 25.7435 12.2955 25.6931ZM15.7928 26.3771L13.9067 21.3471C13.9169 21.3041 13.9333 21.2635 13.9333 21.2167C13.9333 20.9647 14.0334 20.7231 14.2116 20.5449C14.3897 20.3668 14.6314 20.2667 14.8833 20.2667C15.1353 20.2667 15.3769 20.3668 15.5551 20.5449C15.7332 20.7231 15.8333 20.9647 15.8333 21.2167C15.8333 21.3846 15.9001 21.5457 16.0188 21.6645C16.1376 21.7833 16.2987 21.85 16.4667 21.85C16.6346 21.85 16.7957 21.7833 16.9145 21.6645C17.0333 21.5457 17.1 21.3846 17.1 21.2167C17.1 20.9647 17.2001 20.7231 17.3782 20.5449C17.5564 20.3668 17.798 20.2667 18.05 20.2667C18.302 20.2667 18.5436 20.3668 18.7218 20.5449C18.8999 20.7231 19 20.9647 19 21.2167C19 21.2635 19.0165 21.3041 19.0266 21.3471L17.1405 26.3771C17.1138 26.4484 17.1001 26.5239 17.1 26.6V31.6667H15.8333V26.6C15.8333 26.524 15.8194 26.448 15.7928 26.3771ZM19 32.9333V34.2H13.9333V32.9333H19ZM17.1 3.16667V0.633333C17.1 0.465363 17.0333 0.304272 16.9145 0.185499C16.7957 0.066726 16.6346 0 16.4667 0C16.2987 0 16.1376 0.066726 16.0188 0.185499C15.9001 0.304272 15.8333 0.465363 15.8333 0.633333V3.16667C15.8333 3.33464 15.9001 3.49573 16.0188 3.6145C16.1376 3.73327 16.2987 3.8 16.4667 3.8C16.6346 3.8 16.7957 3.73327 16.9145 3.6145C17.0333 3.49573 17.1 3.33464 17.1 3.16667ZM29.1333 16.4667C29.1333 16.6346 29.2001 16.7957 29.3188 16.9145C29.4376 17.0333 29.5987 17.1 29.7667 17.1H32.3C32.468 17.1 32.6291 17.0333 32.7478 16.9145C32.8666 16.7957 32.9333 16.6346 32.9333 16.4667C32.9333 16.2987 32.8666 16.1376 32.7478 16.0188C32.6291 15.9001 32.468 15.8333 32.3 15.8333H29.7667C29.5987 15.8333 29.4376 15.9001 29.3188 16.0188C29.2001 16.1376 29.1333 16.2987 29.1333 16.4667ZM0.633333 17.1H3.16667C3.33464 17.1 3.49573 17.0333 3.6145 16.9145C3.73327 16.7957 3.8 16.6346 3.8 16.4667C3.8 16.2987 3.73327 16.1376 3.6145 16.0188C3.49573 15.9001 3.33464 15.8333 3.16667 15.8333H0.633333C0.465363 15.8333 0.304272 15.9001 0.185499 16.0188C0.0667261 16.1376 0 16.2987 0 16.4667C0 16.6346 0.0667261 16.7957 0.185499 16.9145C0.304272 17.0333 0.465363 17.1 0.633333 17.1ZM21.5561 4.81207C21.6815 4.81205 21.804 4.77485 21.9081 4.70517C22.0123 4.6355 22.0935 4.53649 22.1413 4.42067L23.1116 2.07987C23.1451 2.00272 23.1628 1.91968 23.1639 1.83559C23.1649 1.75151 23.1492 1.66806 23.1176 1.59011C23.0861 1.51216 23.0393 1.44128 22.9801 1.3816C22.9208 1.32192 22.8503 1.27464 22.7726 1.24251C22.6948 1.21038 22.6115 1.19405 22.5274 1.19447C22.4433 1.19489 22.3602 1.21206 22.2828 1.24496C22.2054 1.27787 22.1353 1.32585 22.0767 1.38612C22.018 1.44639 21.972 1.51774 21.9412 1.596L20.9709 3.9368C20.9312 4.03301 20.9157 4.13754 20.926 4.24113C20.9362 4.34473 20.9719 4.4442 21.0297 4.53075C21.0876 4.61729 21.1659 4.68823 21.2577 4.7373C21.3495 4.78637 21.452 4.81205 21.5561 4.81207ZM28.5114 22.1413L30.8522 23.1116C30.929 23.1439 31.0114 23.1606 31.0947 23.1608C31.178 23.161 31.2605 23.1446 31.3375 23.1127C31.4144 23.0808 31.4842 23.0339 31.5429 22.9748C31.6016 22.9157 31.648 22.8455 31.6793 22.7683C31.7435 22.6131 31.7433 22.4388 31.679 22.2837C31.6146 22.1286 31.4913 22.0054 31.3361 21.9412L28.9953 20.9709C28.8407 20.9102 28.6685 20.9125 28.5156 20.9775C28.3628 21.0425 28.2416 21.1649 28.1782 21.3184C28.1147 21.4718 28.1141 21.6441 28.1764 21.798C28.2388 21.9519 28.3591 22.0752 28.5114 22.1413ZM1.596 10.9921L3.9368 11.9624C4.01359 11.9947 4.09602 12.0114 4.17932 12.0116C4.26261 12.0118 4.34512 11.9954 4.42205 11.9635C4.49899 11.9316 4.56882 11.8847 4.62751 11.8256C4.68619 11.7665 4.73256 11.6963 4.76393 11.6191C4.82815 11.4641 4.82819 11.2899 4.76407 11.1348C4.69995 10.9797 4.57689 10.8564 4.42193 10.792L2.08113 9.82173C2.00428 9.78988 1.92191 9.77347 1.83872 9.77345C1.75553 9.77343 1.67315 9.7898 1.59629 9.82161C1.51942 9.85343 1.44958 9.90007 1.39074 9.95888C1.3319 10.0177 1.28522 10.0875 1.25337 10.1644C1.18903 10.3196 1.18899 10.494 1.25325 10.6492C1.3175 10.8044 1.4408 10.9278 1.596 10.9921ZM25.4233 6.61453C25.3045 6.73346 25.2379 6.89468 25.238 7.06275C25.2381 7.23081 25.305 7.39194 25.4239 7.5107C25.5428 7.62946 25.7041 7.6961 25.8721 7.69599C26.0402 7.69587 26.2013 7.62899 26.3201 7.51007L28.1111 5.719C28.2265 5.59955 28.2903 5.43957 28.2889 5.27351C28.2875 5.10745 28.2208 4.94861 28.1034 4.83118C27.986 4.71376 27.8271 4.64715 27.6611 4.64571C27.495 4.64426 27.335 4.7081 27.2156 4.82347L25.4233 6.61453ZM5.2706 28.2961C5.43863 28.2961 5.59984 28.2296 5.719 28.1111L7.51007 26.3201C7.62543 26.2006 7.68927 26.0406 7.68783 25.8746C7.68638 25.7085 7.61978 25.5497 7.50235 25.4322C7.38493 25.3148 7.22608 25.2482 7.06002 25.2468C6.89396 25.2453 6.73398 25.3092 6.61453 25.4245L4.82347 27.2156C4.73518 27.3042 4.67508 27.4169 4.65076 27.5396C4.62644 27.6622 4.63898 27.7894 4.6868 27.9049C4.73462 28.0205 4.81558 28.1193 4.91947 28.1889C5.02337 28.2585 5.14554 28.2958 5.2706 28.2961ZM27.2143 28.1099C27.273 28.1691 27.3428 28.2162 27.4198 28.2483C27.4968 28.2805 27.5793 28.297 27.6627 28.297C27.7461 28.297 27.8287 28.2805 27.9057 28.2483C27.9826 28.2162 28.0525 28.1691 28.1111 28.1099C28.2299 27.9911 28.2966 27.83 28.2966 27.6621C28.2966 27.4942 28.2299 27.3331 28.1111 27.2143L26.3201 25.4233C26.2006 25.3079 26.0406 25.2441 25.8746 25.2455C25.7085 25.2469 25.5497 25.3136 25.4322 25.431C25.3148 25.5484 25.2482 25.7073 25.2468 25.8733C25.2453 26.0394 25.3092 26.1994 25.4245 26.3188L27.2143 28.1099ZM4.82347 4.82347C4.70474 4.94223 4.63804 5.1033 4.63804 5.27123C4.63804 5.43917 4.70474 5.60023 4.82347 5.719L6.61453 7.51007C6.67319 7.56935 6.74303 7.61642 6.81999 7.64854C6.89696 7.68066 6.97953 7.69719 7.06293 7.69719C7.14633 7.69719 7.22891 7.68066 7.30587 7.64854C7.38284 7.61642 7.45267 7.56935 7.51133 7.51007C7.63007 7.3913 7.69676 7.23024 7.69676 7.0623C7.69676 6.89436 7.63007 6.7333 7.51133 6.61453L5.719 4.82347C5.66028 4.76453 5.59049 4.71776 5.51366 4.68585C5.43682 4.65394 5.35443 4.63751 5.27123 4.63751C5.18803 4.63751 5.10565 4.65394 5.02881 4.68585C4.95197 4.71776 4.88219 4.76453 4.82347 4.82347ZM30.8522 9.82173L28.5114 10.792C28.3591 10.8581 28.2388 10.9814 28.1764 11.1353C28.1141 11.2893 28.1147 11.4615 28.1782 11.615C28.2416 11.7685 28.3628 11.8909 28.5156 11.9558C28.6685 12.0208 28.8407 12.0232 28.9953 11.9624L31.3361 10.9921C31.4884 10.926 31.6087 10.8027 31.671 10.6488C31.7334 10.4949 31.7327 10.3226 31.6693 10.1692C31.6058 10.0157 31.4846 9.89327 31.3318 9.82829C31.179 9.76331 31.0067 9.76095 30.8522 9.82173ZM3.9368 20.9709L1.596 21.9412C1.44365 22.0073 1.32336 22.1306 1.26103 22.2845C1.19871 22.4385 1.19933 22.6107 1.26278 22.7642C1.32623 22.9177 1.44742 23.0401 1.60025 23.105C1.75308 23.17 1.92532 23.1724 2.07987 23.1116L4.42067 22.1413C4.57302 22.0752 4.69331 21.9519 4.75564 21.798C4.81796 21.6441 4.81733 21.4718 4.75388 21.3184C4.69043 21.1649 4.56924 21.0425 4.41642 20.9775C4.26359 20.9125 4.09135 20.9102 3.9368 20.9709ZM11.3772 4.81207C11.4813 4.81205 11.5838 4.78637 11.6756 4.7373C11.7674 4.68823 11.8457 4.61729 11.9036 4.53075C11.9615 4.4442 11.9971 4.34473 12.0073 4.24113C12.0176 4.13754 12.0022 4.03301 11.9624 3.9368L10.9921 1.596C10.926 1.44365 10.8027 1.32336 10.6488 1.26103C10.4949 1.19871 10.3226 1.19933 10.1692 1.26278C10.0157 1.32623 9.89327 1.44742 9.82829 1.60025C9.76331 1.75308 9.76095 1.92532 9.82173 2.07987L10.792 4.42067C10.8399 4.53649 10.921 4.6355 11.0252 4.70517C11.1294 4.77485 11.2519 4.81205 11.3772 4.81207Z" fill="#0034EE"/>
</svg>
