<?xml version="1.0" encoding="utf-8"?>
<!-- Svg Vector Icons : http://www.onlinewebfonts.com/icon -->
<!DOCTYPE svg PUBLIC "-//W3C//DTD SVG 1.1//EN" "http://www.w3.org/Graphics/SVG/1.1/DTD/svg11.dtd">
<svg version="1.1" xmlns="http://www.w3.org/2000/svg" xmlns:xlink="http://www.w3.org/1999/xlink" x="0px" y="0px" viewBox="0 0 256 256" enable-background="new 0 0 256 256" xml:space="preserve">
<metadata> Svg Vector Icons : http://www.onlinewebfonts.com/icon </metadata>
<g><g><path fill="#FAFAFA" d="M244.8,120.8l-27.7,27.7c-2.3,2.2-6,2.2-8.2,0l-27.5-27.7c-3.3-3.8-1.1-5.2,1.2-7.3h25.2c-6.9-37.3-40-65.6-79.8-65.6c-30.8,0-57.5,16.9-71.3,41.9L43,84.2c16-30.3,48-51,85-51c47.9,0,87.5,34.8,94.7,80.2h21C245.9,115.6,247.1,118.6,244.8,120.8z M47.4,114.9l27.7,27.7c2.3,2.2,1.1,5.2-1.2,7.3h-24c9.6,33.7,40.9,58.3,78,58.3c28.3,0,53.1-14.3,67.7-36l13.9,5.5c-16.9,27-47.1,45.1-81.5,45.1c-45.3,0-83.2-31.1-93.1-72.9h-22c-2.3-2.2-4.5-3.5-1.2-7.3l27.5-27.7C41.4,112.7,45.1,112.7,47.4,114.9z"/></g></g>
</svg>