<svg width="55" height="38" viewBox="0 0 55 38" fill="none" xmlns="http://www.w3.org/2000/svg">
<path d="M32.4197 37.1969C31.3874 37.1964 30.3589 37.0718 29.3564 36.8258C25.6034 35.9007 24.0841 34.1532 23.4776 33.0224C21.0712 33.5128 14.626 34.256 11.9482 28.8983C11.2784 27.7594 11.0178 26.4257 11.2096 25.1184C11.4014 23.8111 12.0341 22.6085 13.0029 21.71C14.4587 20.3259 16.4005 19.5701 18.4088 19.6058C19.1173 18.1372 20.3395 16.9793 21.8442 16.3513C23.7212 15.6502 25.8737 16.01 28.2421 17.4193C28.473 17.5603 28.639 17.7866 28.7041 18.0492C28.7693 18.3118 28.7283 18.5894 28.59 18.822C28.4518 19.0545 28.2274 19.2232 27.9656 19.2914C27.7038 19.3596 27.4257 19.3219 27.1916 19.1864C25.3906 18.1142 23.8374 17.8048 22.5771 18.2725C21.9754 18.5564 21.4356 18.9561 20.9885 19.4487C20.5413 19.9413 20.1957 20.5173 19.9713 21.1436C19.9233 21.2875 19.8441 21.419 19.7392 21.5286C19.6344 21.6383 19.5066 21.7234 19.365 21.7778C19.2234 21.8322 19.0716 21.8547 18.9203 21.8435C18.769 21.8323 18.6221 21.7877 18.49 21.713C18.0408 21.4602 15.9202 21.7716 14.4194 23.2005C13.7647 23.7926 13.3417 24.5982 13.2259 25.4733C13.1101 26.3485 13.3091 27.2363 13.7872 27.9783C16.2707 32.9484 23.7397 30.8504 23.8158 30.8298C23.9572 30.7888 24.1057 30.7785 24.2513 30.7998C24.397 30.8211 24.5364 30.8735 24.66 30.9533C24.7837 31.0331 24.8888 31.1385 24.9682 31.2625C25.0476 31.3865 25.0995 31.526 25.1203 31.6717C25.1336 31.7314 25.589 33.778 29.8488 34.8265C33.1516 35.6406 36.258 34.7597 37.3528 33.4388C37.6089 33.1347 37.7652 32.7592 37.8003 32.3632C37.8355 31.9672 37.7477 31.57 37.5491 31.2256C37.4351 30.9779 37.4242 30.6951 37.5188 30.4394C37.6133 30.1837 37.8056 29.976 38.0533 29.862C38.301 29.7481 38.5838 29.7372 38.8395 29.8317C39.0952 29.9263 39.3029 30.1186 39.4169 30.3662C39.7794 31.0622 39.9274 31.8499 39.8421 32.63C39.7568 33.41 39.4421 34.1472 38.9378 34.7484C37.6467 36.3077 35.1489 37.1969 32.4197 37.1969Z" fill="#0034EE"/>
<path d="M10.6037 27.7397C8.30389 27.783 6.0504 27.0905 4.17186 25.763C1.83844 24.0227 0.454827 21.2565 0.0600981 17.5395C-0.5947 11.3862 4.24896 8.60257 7.40063 7.83264C7.88993 6.23625 9.53052 2.36708 14.0586 1.72153C16.7706 1.30616 19.5442 1.61541 22.0981 2.6179C23.3851 1.05132 26.1945 -0.750666 30.555 0.326616C34.8292 1.38026 36.4955 3.11234 37.1338 4.19681C39.5186 3.91824 46.2527 3.83395 48.7958 11.0388C50.4755 15.7971 48.1359 17.6875 47.0483 18.2806C44.2544 19.8071 39.9833 18.7021 38.4475 16.7254C35.7852 13.3044 37.5851 10.9257 37.6632 10.826C37.7451 10.7162 37.8482 10.6238 37.9664 10.5544C38.0845 10.4849 38.2153 10.4398 38.3512 10.4217C38.487 10.4036 38.6251 10.4128 38.7573 10.4488C38.8895 10.4848 39.0132 10.5469 39.1211 10.6314C39.229 10.7159 39.3189 10.8211 39.3855 10.9409C39.4521 11.0606 39.4941 11.1925 39.509 11.3287C39.5239 11.4649 39.5115 11.6028 39.4723 11.7341C39.4332 11.8654 39.3682 11.9876 39.2812 12.0935C39.2617 12.1243 38.4321 13.3589 40.0696 15.463C41.0482 16.7223 44.2503 17.4655 46.0625 16.4766C47.773 15.5422 47.4359 13.3753 46.853 11.7234C44.3716 4.69331 37.0475 6.264 36.7391 6.33287C36.6038 6.36388 36.4636 6.36714 36.3269 6.34247C36.1903 6.3178 36.0601 6.26571 35.9441 6.18935C35.8282 6.11298 35.7289 6.01391 35.6523 5.89813C35.5757 5.78234 35.5233 5.65224 35.4984 5.51566C35.4984 5.51566 34.8929 3.51529 30.0503 2.32185C25.2076 1.12841 23.418 4.27494 23.344 4.40549C23.2782 4.52547 23.1893 4.63122 23.0824 4.71659C22.9755 4.80197 22.8527 4.86528 22.7211 4.90285C22.5896 4.94043 22.4519 4.95152 22.316 4.93549C22.1801 4.91946 22.0487 4.87663 21.9295 4.80947C19.5607 3.70567 16.915 3.33861 14.3351 3.75583C10.1894 4.34792 9.26531 8.72284 9.22728 8.90787C9.18696 9.11275 9.08519 9.3005 8.93553 9.44612C8.78587 9.59174 8.59541 9.68832 8.3895 9.72303C8.10682 9.77237 1.41904 11.0049 2.09131 17.3226C2.43361 20.4414 3.53968 22.7234 5.38689 24.108C7.33281 25.4027 9.68968 25.9297 12.0017 25.5872C12.27 25.5379 12.5468 25.5971 12.7714 25.7519C12.996 25.9067 13.1499 26.1444 13.1992 26.4127C13.2486 26.6809 13.1893 26.9578 13.0345 27.1824C12.8797 27.407 12.6421 27.5609 12.3738 27.6102C11.7884 27.7027 11.1963 27.746 10.6037 27.7397Z" fill="#0034EE"/>
<path d="M48.2263 31.5884H48.2047C47.9322 31.5825 47.6733 31.4686 47.4848 31.2718C47.2962 31.075 47.1936 30.8114 47.1994 30.5389C47.1995 30.4032 47.2271 30.2689 47.2805 30.144C47.3339 30.0192 47.4119 29.9065 47.5099 29.8126C47.6079 29.7187 47.7239 29.6456 47.8509 29.5976C47.9779 29.5497 48.1133 29.5279 48.2489 29.5336C48.3414 29.5336 50.9884 29.4236 52.0091 24.3857C53.071 19.1432 47.7863 16.1714 47.7319 16.1426C47.6135 16.0776 47.509 15.9899 47.4245 15.8846C47.34 15.7792 47.2771 15.6582 47.2394 15.5286C47.2016 15.3989 47.1898 15.2631 47.2045 15.1288C47.2193 14.9946 47.2603 14.8645 47.3253 14.7461C47.3903 14.6277 47.478 14.5233 47.5833 14.4388C47.6887 14.3543 47.8097 14.2914 47.9393 14.2536C48.069 14.2159 48.2048 14.204 48.3391 14.2188C48.4733 14.2335 48.6034 14.2746 48.7218 14.3396C51.0305 15.607 55.1104 19.4217 54.0239 24.7937C52.6804 31.4312 48.6025 31.5884 48.2263 31.5884Z" fill="#0034EE"/>
<path d="M42.2643 37.9996C40.0583 37.8904 37.9054 37.2847 35.9661 36.2274C35.7284 36.0938 35.5535 35.8713 35.4798 35.6087C35.4062 35.3462 35.4399 35.0651 35.5734 34.8274C35.707 34.5896 35.9296 34.4147 36.1922 34.3411C36.4547 34.2674 36.7358 34.3011 36.9735 34.4347C37.0136 34.4573 41.0606 36.6962 43.8802 35.6929C44.3965 35.5007 44.863 35.1951 45.2454 34.7985C45.6277 34.4019 45.9161 33.9245 46.0893 33.4016C46.5548 32.416 46.7702 31.3309 46.7165 30.2422C46.6627 29.1535 46.3413 28.0949 45.7809 27.16C45.0792 26.1721 44.1539 25.3643 43.0803 24.8024C42.0068 24.2406 40.8156 23.9406 39.604 23.9271C39.3314 23.9134 39.0753 23.7921 38.8922 23.5897C38.7091 23.3872 38.6138 23.1204 38.6275 22.8477C38.6411 22.5751 38.7625 22.3191 38.9649 22.1359C39.1673 21.9528 39.4342 21.8576 39.7068 21.8712C41.2449 21.9011 42.7539 22.2951 44.1103 23.0209C45.4667 23.7467 46.6317 24.7837 47.5099 26.0467C48.2441 27.2576 48.6721 28.6292 48.7568 30.0428C48.8416 31.4564 48.5804 32.8693 47.9961 34.1592C47.7162 34.9566 47.2625 35.6817 46.6678 36.2821C46.0731 36.8825 45.3523 37.3431 44.5577 37.6306C43.8197 37.8829 43.0442 38.0077 42.2643 37.9996ZM25.5068 12.4172C25.2586 12.4177 25.0185 12.3283 24.831 12.1656C24.6435 12.0029 24.5213 11.7778 24.4868 11.532C24.4524 11.2861 24.508 11.0361 24.6436 10.8281C24.7791 10.6201 24.9853 10.4682 25.2241 10.4004C25.5598 10.3347 25.8738 10.1867 26.1383 9.96985C26.4027 9.75297 26.6092 9.4739 26.7393 9.15762C26.8548 8.69623 26.8631 8.21452 26.7635 7.74945C26.6639 7.28438 26.459 6.8483 26.1647 6.47469C26.0094 6.25059 25.9496 5.97399 25.9982 5.70575C26.0469 5.4375 26.2002 5.19957 26.4243 5.04431C26.6484 4.88905 26.925 4.82917 27.1932 4.87785C27.4615 4.92653 27.6994 5.07977 27.8546 5.30387C28.3396 5.94343 28.6669 6.68841 28.8098 7.47824C28.9527 8.26807 28.9072 9.08048 28.677 9.84942C28.4378 10.4734 28.0501 11.0297 27.5476 11.4702C27.045 11.9106 26.4426 12.2219 25.7926 12.3771C25.6998 12.4042 25.6035 12.4177 25.5068 12.4172Z" fill="#0034EE"/>
<path d="M33.0591 18.0617C32.7921 18.0619 32.5355 17.9581 32.3436 17.7724C32.1517 17.5867 32.0397 17.3336 32.0311 17.0667C31.8256 10.7675 27.8495 10.4139 27.6799 10.4015C27.4085 10.3838 27.1553 10.2593 26.9755 10.0553C26.7958 9.85126 26.7042 9.58433 26.7208 9.31293C26.7357 9.04272 26.8571 8.78945 27.0585 8.60868C27.2599 8.42792 27.5248 8.33442 27.795 8.34872C27.8546 8.34872 33.8218 8.7527 34.085 17.0009C34.0936 17.2732 33.9937 17.5378 33.8073 17.7365C33.6209 17.9353 33.3633 18.0518 33.091 18.0607L33.0591 18.0617ZM26.066 29.3845C25.8793 29.3843 25.6961 29.3332 25.5362 29.2368C25.3763 29.1403 25.2457 29.0022 25.1585 28.8371C25.0712 28.672 25.0305 28.4863 25.0408 28.2999C25.0511 28.1134 25.112 27.9333 25.2169 27.7789C25.5151 27.4278 25.7339 27.0163 25.8581 26.5727C25.9823 26.1291 26.009 25.6639 25.9365 25.209C25.78 24.8958 25.5633 24.6165 25.2987 24.3872C25.0341 24.1579 24.7268 23.983 24.3946 23.8727C24.1339 23.7923 23.9159 23.6116 23.7885 23.3704C23.6611 23.1293 23.6347 22.8474 23.7151 22.5867C23.7955 22.3261 23.9762 22.1081 24.2174 21.9807C24.4585 21.8532 24.7404 21.8268 25.0011 21.9073C25.6398 22.113 26.2272 22.4531 26.7236 22.9047C27.2201 23.3563 27.6141 23.9089 27.8793 24.5254C28.0854 25.2822 28.1061 26.0774 27.9395 26.8439C27.7729 27.6103 27.4239 28.3252 26.9223 28.9281C26.8282 29.0688 26.7008 29.1841 26.5514 29.2637C26.402 29.3433 26.2353 29.3848 26.066 29.3845Z" fill="#0034EE"/>
<path d="M34.6298 29.3845C34.4023 29.3843 34.1812 29.3086 34.0013 29.1692C33.8215 29.0299 33.6929 28.8348 33.6358 28.6146C33.538 28.0328 33.311 27.4805 32.9713 26.9982C32.6317 26.5159 32.1882 26.1159 31.6734 25.8278C29.8745 24.9757 27.5051 26.055 27.4815 26.0663C27.3593 26.1236 27.2269 26.1563 27.0921 26.1624C26.9572 26.1686 26.8225 26.1481 26.6955 26.1022C26.5686 26.0563 26.4519 25.9858 26.3522 25.8948C26.2525 25.8038 26.1716 25.6941 26.1143 25.5719C26.057 25.4496 26.0244 25.3173 26.0182 25.1824C26.012 25.0476 26.0325 24.9128 26.0784 24.7859C26.1243 24.6589 26.1948 24.5423 26.2858 24.4425C26.3768 24.3428 26.4865 24.262 26.6088 24.2047C26.7403 24.142 29.8601 22.706 32.539 23.9621C33.3337 24.3714 34.0246 24.9566 34.559 25.6733C35.0934 26.3899 35.4572 27.219 35.6228 28.0975C35.6624 28.2496 35.6666 28.4088 35.6351 28.5627C35.6035 28.7167 35.5371 28.8614 35.4409 28.9857C35.3447 29.11 35.2213 29.2106 35.0802 29.2797C34.939 29.3489 34.7839 29.3847 34.6267 29.3845H34.6298ZM6.56084 19.8781C6.41685 19.8782 6.27452 19.8473 6.14349 19.7876C5.89654 19.6767 5.7033 19.4729 5.60572 19.2204C5.50815 18.9679 5.51411 18.6871 5.62232 18.439C5.89927 17.8285 6.30594 17.2858 6.81402 16.8485C7.32211 16.4113 7.91939 16.09 8.56429 15.9072C9.9407 15.6183 11.3973 16.1724 12.8816 17.5519C12.9808 17.6435 13.0609 17.7538 13.1174 17.8764C13.174 17.9991 13.2058 18.1316 13.2111 18.2665C13.2164 18.4015 13.1951 18.5361 13.1483 18.6628C13.1016 18.7895 13.0304 18.9057 12.9387 19.0049C12.847 19.104 12.7367 19.1841 12.6141 19.2407C12.4915 19.2972 12.3589 19.329 12.224 19.3343C12.0891 19.3396 11.9544 19.3183 11.8278 19.2715C11.7011 19.2248 11.5849 19.1536 11.4857 19.0619C11.1763 18.7028 10.7929 18.415 10.3617 18.2182C9.93049 18.0214 9.46178 17.9203 8.9878 17.9219C8.65921 18.0328 8.35713 18.2105 8.1006 18.4438C7.84407 18.6772 7.63865 18.9611 7.49729 19.2778C7.41462 19.4567 7.28256 19.6082 7.11665 19.7146C6.95075 19.8209 6.7579 19.8777 6.56084 19.8781ZM18.524 13.2818C18.3508 13.2817 18.1803 13.2379 18.0285 13.1543C17.394 12.8601 16.8336 12.4271 16.3888 11.8873C15.944 11.3475 15.6261 10.7147 15.4587 10.0356C15.3633 9.3617 15.4022 8.67561 15.5731 8.01685C15.7441 7.35809 16.0437 6.73967 16.4548 6.19723C16.6258 5.99218 16.8698 5.86171 17.1353 5.83343C17.4008 5.80514 17.6669 5.88126 17.8772 6.04567C18.0876 6.21008 18.2257 6.44989 18.2624 6.71435C18.2991 6.97881 18.2314 7.24716 18.0738 7.46262C17.6078 8.08577 17.3941 8.86184 17.4755 9.63569C17.5927 10.0166 17.7914 10.3675 18.0576 10.6641C18.3238 10.9607 18.6513 11.1959 19.0174 11.3534C19.2173 11.4634 19.3748 11.6368 19.4653 11.8462C19.5558 12.0557 19.574 12.2892 19.5171 12.5102C19.4602 12.7311 19.3315 12.9268 19.1511 13.0665C18.9708 13.2062 18.7491 13.282 18.5209 13.2818H18.524Z" fill="#0034EE"/>
<path d="M9.37531 17.889H9.34652C9.07496 17.8815 8.81742 17.7667 8.63019 17.5699C8.44297 17.373 8.34128 17.1101 8.34736 16.8385C8.35814 14.6867 9.19711 12.6218 10.6901 11.0724C12.1831 9.52289 14.2155 8.60787 16.3653 8.51727C16.6379 8.50023 16.9062 8.59219 17.111 8.77291C17.3158 8.95364 17.4405 9.20833 17.4575 9.48096C17.4745 9.75359 17.3826 10.0218 17.2018 10.2266C17.0211 10.4315 16.7664 10.5561 16.4938 10.5731C10.653 10.9391 10.4084 16.6524 10.4012 16.896C10.3921 17.1622 10.2801 17.4145 10.0888 17.5997C9.89741 17.7849 9.64163 17.8886 9.37531 17.889Z" fill="#0034EE"/>
</svg>
