<?xml version="1.0" encoding="utf-8"?>
<!-- Svg Vector Icons : http://www.onlinewebfonts.com/icon -->
<!DOCTYPE svg PUBLIC "-//W3C//DTD SVG 1.1//EN" "http://www.w3.org/Graphics/SVG/1.1/DTD/svg11.dtd">
<svg version="1.1" xmlns="http://www.w3.org/2000/svg" xmlns:xlink="http://www.w3.org/1999/xlink" x="0px" y="0px" viewBox="0 0 256 256" enable-background="new 0 0 256 256" xml:space="preserve">
<metadata> Svg Vector Icons : http://www.onlinewebfonts.com/icon </metadata>
<g><g><g><path fill="#000000" d="M246,137.5c0,26.4-10.4,49.9-26.8,65.7c9.3-15.8,14.7-39.4,14.7-74.8c0-22.1-6.7-42.6-18.2-59.6C234.1,84.4,246,109.3,246,137.5z M40.2,68.8C21.9,84.4,10,109.3,10,137.5c0,27,10.9,51,27.9,66.7C28,188.4,22,164.6,22,128.4C22,106.4,28.7,85.9,40.2,68.8z M202.6,59.8c-18.5-20.4-45-33.2-74.6-33.2c-29.6,0-56.1,12.9-74.7,33.2C36.9,77.9,26.8,102,26.8,128.4c0,48.3,10.3,73.7,27.1,87c3.1,2.4,6.3,4.5,9.8,6.2c-1.3-1.1-2.6-2.3-3.9-3.5c-10.1-9.9-16.5-23.7-16.6-38.8c-0.6-15.6-0.9-26.1-1.3-38.2c-0.2-6.4-0.4-13.2-0.7-21.6c0-31.6,32.9-55.2,62.3-55.2h19.6h9.7h19.6c35.7,0,62.3,29.1,62.3,55.4c-0.3,8.2-0.5,15.1-0.6,21.4c-0.3,12.1-0.7,22.6-1.3,38.1c-0.1,15.2-6.5,29-16.7,39c-1.3,1.3-2.7,2.6-4.2,3.7c3.8-1.8,7.4-4,10.7-6.7c16.4-13.4,26.5-38.8,26.5-86.7C229.2,102,219.1,77.9,202.6,59.8z M183.9,221.8c-7.8,4.8-16.9,7.6-26.7,7.6c-7.8,0-14.3,0-20.3,0c-12.1,0-22.5,0-38.1,0c-9.8,0-18.9-2.8-26.7-7.6C57.7,213,48,197.2,47.9,179.1c-1-23.9-1.2-35.9-1.9-59.7C46,91.6,75.6,69,103.5,69c9.2,0,16.3,0,23.2,0c0.9,0,1.7,0,2.6,0c6.9,0,14,0,23.2,0c27.9,0,57.6,22.6,57.6,50.5c-0.7,23.7-0.9,35.8-1.9,59.7C208,197.2,198.3,213,183.9,221.8z M106.4,142.5c0-6.8-3.6-12.8-9-16.1c-2.9-1.8-6.3-2.9-10-2.9c-10.5,0-19,8.5-19,19c0,10.5,8.5,19,19,19c4.3,0,8.2-1.5,11.4-3.9C103.4,154.1,106.4,148.7,106.4,142.5z M187.6,142.5c0-10.5-8.5-19-19-19c-3.7,0-7.1,1.1-10,2.9c-5.4,3.3-9,9.3-9,16.1c0,6.2,3,11.6,7.6,15.1c3.2,2.4,7.1,3.9,11.4,3.9C179.1,161.5,187.6,153,187.6,142.5z"/></g><g></g><g></g><g></g><g></g><g></g><g></g><g></g><g></g><g></g><g></g><g></g><g></g><g></g><g></g><g></g></g></g>
</svg>