<svg width="16" height="9" viewBox="0 0 16 9" fill="none" xmlns="http://www.w3.org/2000/svg">
<path fill-rule="evenodd" clip-rule="evenodd" d="M0.233988 0.299874C-0.0779972 0.631231 -0.0779973 1.16713 0.233988 1.49767L6.84485 8.50364C6.99058 8.66046 7.16596 8.78534 7.36035 8.87067C7.55474 8.956 7.76406 9 7.9756 9C8.18713 9 8.39646 8.956 8.59084 8.87067C8.78523 8.78534 8.96062 8.66046 9.10634 8.50364L15.766 1.44694C15.9148 1.28679 15.9985 1.0747 16 0.853755C16.0015 0.632806 15.9207 0.419562 15.774 0.25733C15.7016 0.176962 15.6138 0.112658 15.5161 0.0683989C15.4184 0.0241395 15.3128 0.000867449 15.2059 2.37578e-05C15.0991 -0.000819934 14.9932 0.0207827 14.8948 0.063494C14.7964 0.106205 14.7077 0.169116 14.6341 0.24833L8.54077 6.70694C8.4679 6.78542 8.38018 6.84791 8.28295 6.89061C8.18572 6.93332 8.08101 6.95534 7.9752 6.95534C7.86938 6.95534 7.76467 6.93332 7.66744 6.89061C7.57021 6.84791 7.48249 6.78542 7.40963 6.70694L1.36433 0.299874C1.29153 0.22142 1.20388 0.158943 1.10672 0.116249C1.00956 0.0735551 0.904912 0.0515376 0.79916 0.0515376C0.693408 0.0515376 0.588762 0.0735551 0.491598 0.116249C0.394434 0.158943 0.306784 0.22142 0.233988 0.299874Z" fill="#FAFAFA"/>
</svg>
